<?xml version="1.0" standalone="no"?>
<!DOCTYPE svg PUBLIC "-//W3C//DTD SVG 1.1//EN" "http://www.w3.org/Graphics/SVG/1.1/DTD/svg11.dtd" >
<svg xmlns="http://www.w3.org/2000/svg" xmlns:xlink="http://www.w3.org/1999/xlink" version="1.1">
<metadata></metadata>
<defs>
<font id="djb_almost_perfectregular" horiz-adv-x="1378" >
<font-face units-per-em="2048" ascent="1638" descent="-410" />
<missing-glyph horiz-adv-x="902" />
<glyph horiz-adv-x="0" />
<glyph unicode="&#xd;" horiz-adv-x="508" />
<glyph unicode=" "  horiz-adv-x="902" />
<glyph unicode="&#x09;" horiz-adv-x="902" />
<glyph unicode="&#xa0;" horiz-adv-x="902" />
<glyph unicode="!" horiz-adv-x="713" d="M284 1695q-34 281 36 296q52 35 90 43q76 16 98.5 -77t67.5 -985q68 -323 22 -354t-81 -38q-155 8 -177 116l-9 41q-26 126 -47 958zM339 210q56 132 168 132h30q81 0 120 -150q-42 -192 -144 -192h-12q-120 0 -162 210z" />
<glyph unicode="&#x22;" horiz-adv-x="834" d="M107 1279q68 444 126 444l60 24q168 -39 168 -138q0 -55 -78 -282q-67 -234 -144 -234h-6q-94 0 -120 162zM455 1279v12q0 270 132 480q33 24 66 24q124 0 150 -168q-159 -491 -234 -504h-24q-60 36 -90 156z" />
<glyph unicode="#" horiz-adv-x="2129" d="M138 343v12q0 114 120 114l294 6q75 0 108 180v18q-102 72 -102 156l-6 48q0 108 138 108h42q26 0 48 186q17 156 120 156l42 6q79 0 132 -168v-6q-24 -98 -24 -150h12q293 42 366 66h132l132 624q43 54 102 54h6q90 0 132 -150v-6l-90 -498h6l54 12q174 -23 174 -168 q-54 -132 -108 -132q-20 -28 -84 -36l-90 18q-36 -66 -36 -150v-18q0 -10 114 -24q85 -59 120 -162v-12q0 -67 -102 -114q0 -26 -84 -30q-47 0 -78 24h-18q-55 -210 -288 -192q-36 32 -36 96v66l-6 30h-6q-510 -53 -510 -96q-48 -21 -114 -198q-88 -66 -114 -66 q-150 0 -150 198v36l-168 -12q-180 17 -180 174zM906 517q122 36 546 72q26 0 48 198q0 12 -18 12q-534 -72 -534 -132z" />
<glyph unicode="$" horiz-adv-x="962" d="M113 606q42 258 66 258q10 29 72 84q42 0 72 -168h12v18q0 102 -54 360q0 32 48 204q20 210 72 210h12q41 0 114 -84h12q0 210 108 210q133 0 162 -198v-54l-18 -114l12 -144q-36 -117 -36 -150v-96q0 -24 78 -186l6 -18l-42 -144q72 -172 72 -210q-20 -78 -78 -78 q-156 66 -156 126h-18q0 -105 -78 -144l-60 -18q-28 0 -126 120q-198 33 -198 78q-54 48 -54 138zM329 726l12 -12h6l-6 30h-12v-18z" />
<glyph unicode="%" horiz-adv-x="1527" d="M74 884q0 213 150 414q42 108 162 108l156 12q74 0 168 -138l30 -144v-90h6q26 49 176 532q76 95 114 96q90 -42 90 -162v-18q0 -62 -74 -262q-126 -354 -336 -870q-24 -169 -114 -324q0 -57 -120 -96q-100 0 -120 132q0 96 228 594l24 84v6h-6q-127 -127 -234 -138 q-27 -12 -78 -12q-204 39 -204 132q-18 60 -18 144zM272 902l12 -12h24q110 0 192 138q22 41 30 108l-6 18h-6q-46 0 -210 -126q-36 -44 -36 -102v-24zM865.5 320q-29.5 325 137 459.5t229 86.5t144.5 -138q90 -129 90 -306v-54q0 -184 -144 -342q-132 -54 -279.5 -42.5 t-177 336.5zM1064 314q0 -36 36 -36h30q67 0 102 120l6 48v30q-6 90 -36 90h-42q-78 0 -96 -204v-48z" />
<glyph unicode="&#x26;" horiz-adv-x="1425" d="M152 221v30q0 159 120 378q146 143 360 216q30 26 30 60l-30 348q0 447 216 558q0 32 210 72q137 0 228 -180q24 -105 24 -204q0 -357 -414 -786q18 -238 54 -456l-6 -42h12q162 112 162 186v6q0 18 -84 138l-6 36v12q0 104 84 138q222 -134 222 -306v-36 q0 -246 -390 -468q-242 -84 -402 -84q-194 0 -336 192q-50 104 -54 192zM368 257q0 -96 102 -132h126q222 26 222 60q-36 0 -96 330q-5 60 -24 60h-18q-312 -116 -312 -318zM836 1157q5 -132 24 -132q64 55 156 204l78 168l12 132q-4 78 -30 78h-42q-101 0 -180 -132 q-18 -38 -18 -180v-138z" />
<glyph unicode="'" horiz-adv-x="564" d="M180 1270l63 256q14 279 29 312q84 93 144 64q100 -48 64 -310q9 -108 -78 -289l-5 -10q-67 -141 -176 -89q-34 16 -41 66z" />
<glyph unicode="(" horiz-adv-x="826" d="M156.5 910q5.5 331 68.5 515t131 311t196 231q132 -37 135 -164t-93 -160q-70 -62 -150 -246q-66 -200 -71.5 -550t190 -491.5t151.5 -248.5t-95 -107h-6q-106 15 -251 162t-178 282t-27.5 466z" />
<glyph unicode=")" horiz-adv-x="831" d="M163 169q0 48 192 252q198 320 198 672v18q0 365 -270 534q-120 114 -120 174v6q0 110 102 150q129 -43 342 -306q162 -239 162 -618q0 -284 -132 -588q-207 -474 -342 -474q-82 0 -132 180z" />
<glyph unicode="*" horiz-adv-x="1215" d="M99 1093v12q0 135 216 150q32 0 42 24v12q-48 160 -48 198q45 120 114 120q44 0 114 -102h12q9 0 36 150q55 182 114 210h24q102 -51 102 -210q0 -46 36 -180l-36 -126h6l180 30q132 -43 132 -192q0 -126 -186 -126q-162 -4 -162 -24q0 -66 102 -190t95.5 -216t-95.5 -92 q-83 0 -198 168l-101 127l-97 -163q-30 -42 -60 -42q-150 43 -150 150l30 168h-90q-111 0 -132 144z" />
<glyph unicode="+" horiz-adv-x="1331" d="M87 780q0 141 162 156q258 12 258 36v6q0 92 -60 288q19 180 120 180q154 0 186 -456q372 12 416 4t75 -121t-35 -189l-162 24h-84q-192 -12 -192 -42q0 -255 60 -522q0 -39 -96 -144q-67 0 -138 78q-31 37 -48 306q-14 276 -30 276q-61 -12 -312 -24q-92 0 -120 144z " />
<glyph unicode="," horiz-adv-x="637" d="M136 -474q11 88 96.5 127t85.5 350q0 36 -36 156v36q0 144 120 168q122 0 156 -366q0 -259 -86.5 -425t-185.5 -166h-12q-87 0 -138 120z" />
<glyph unicode="-" d="M146 848q26 138 120 138l288 -12h126q463 56 561.5 33.5t98.5 -153.5q-30 -138 -120 -138l-36 -6h-132l-618 -42h-174q-89 0 -114 180z" />
<glyph unicode="." horiz-adv-x="585" d="M129 120q-5 240 186.5 225.5t191.5 -159.5v-24q-16 -150 -108 -150l-102 -12q-162 0 -162 84z" />
<glyph unicode="/" horiz-adv-x="868" d="M13 144q34 118 132 330q239 490 372 954l96 312q49 66 96 66h18q108 -62 108 -204q-269 -781 -420 -1098l-180 -456q-51 -48 -96 -48q-83 0 -126 144z" />
<glyph unicode="0" horiz-adv-x="1263" d="M77 510q0 354 186 750q146 120 192 120q23 0 186 -114q323 -121 450 -294q114 -204 114 -336q0 -336 -384 -552q-149 -84 -282 -84h-36q-194 0 -336 168q-90 139 -90 342zM287 546q0 -175 102 -246q42 -36 84 -36h12q281 0 474 252l24 102v12q0 242 -216 330 q-183 120 -318 120q-128 -43 -162 -534z" />
<glyph unicode="1" horiz-adv-x="436" d="M81 1380q0 65 114 156q138 0 138 -264l6 -402v-510l6 -276q-55 -84 -126 -84q-112 0 -132 156v18q24 199 24 444q-6 740 -30 762z" />
<glyph unicode="2" horiz-adv-x="1294" d="M114 1086q0 183 552 378l102 18q222 -30 222 -216v-66q0 -185 -192 -468q-222 -357 -222 -420l12 -12h36q57 0 228 48l264 42q138 -49 138 -144l6 -24q-20 -156 -156 -156h-18l-144 6l-294 -60l-132 -12q-210 21 -210 156q-9 0 -18 72q32 207 120 306q94 184 114 204 q240 333 240 480h-6q-263 -76 -372 -186q-13 -1 -102 -96q-168 0 -168 150z" />
<glyph unicode="3" horiz-adv-x="1101" d="M111 696q0 106 270 264q222 194 222 252q-6 24 -36 24q-94 -19 -222 -120l-54 -6q-90 0 -138 108v6q0 145 150 198q237 90 318 90q108 0 210 -138l30 -102q-16 -126 -144 -324v-12l150 -96q180 -137 180 -360q0 -165 -288 -378q-205 -102 -360 -102q-174 23 -174 162 q35 168 168 168h6q50 0 96 -42h6q211 59 288 180l12 36v12q0 136 -240 156q-154 0 -240 -84q-40 -30 -84 -30q-104 0 -126 138z" />
<glyph unicode="4" horiz-adv-x="1014" d="M43 840v84q0 236 174 642q36 36 60 36h12q120 -43 120 -108q-20 -124 -108 -408l-18 -174h12v-6q348 34 348 66q23 660 131.5 658.5t123.5 -43t15 -93.5l-30 -510q84 -121 84 -186q0 -27 -84 -120q-15 0 -30 -348v-30l6 -186q-44 -114 -156 -114q-106 0 -138 156v18 q54 168 54 450v18l-12 12h-36l-282 -30h-48q-118 22 -168 84q-30 65 -30 132z" />
<glyph unicode="5" horiz-adv-x="1106" d="M77 996l6 258h-6q0 173 156 234l30 6q68 -36 120 -36q211 0 432 156q150 -35 150 -150v-18q0 -137 -258 -186q-110 -42 -348 -90l-12 -18v-18q0 -15 156 -30q258 -78 414 -318q102 -197 102 -294v-12q0 -360 -666 -480h-12q-118 0 -138 180v24q0 115 156 144 q59 -42 114 -42h18q276 87 276 174v6q0 171 -234 324l-90 24l-264 -24q-102 0 -102 186z" />
<glyph unicode="6" horiz-adv-x="1211" d="M77 372v78q0 174 132 840q32 276 102 276q21 24 60 24q108 -23 108 -150v-6q0 -83 -114 -588q-42 -235 -42 -312v-60q0 -192 180 -192q78 10 78 30v6q0 411 294 672q78 30 108 30q125 0 168 -222l6 -132q0 -117 -102 -324l-6 -30l6 -60q0 -97 -138 -162q0 -24 -90 -36 h-84l-210 -42l-96 -12q-222 61 -222 108q-80 47 -138 264zM845 456q102 89 102 222h-18q-84 -144 -84 -222z" />
<glyph unicode="7" horiz-adv-x="1288" d="M96 1224v24q54 126 156 126l174 -42q119 0 690 78q114 -34 114 -114l6 -78q0 -76 -168 -762q-66 -226 -66 -294q-16 -162 -162 -162h-12q-102 0 -102 156v18l96 336q144 542 144 600l-12 12q-230 -48 -546 -72l-6 -6l-66 12l-66 -6q-174 49 -174 174z" />
<glyph unicode="8" horiz-adv-x="1118" d="M126 245q-29 143 16 194l175 311l-5 24q-149 251 -171 356q-30 145 49 298q94 75 113 79q180 8 338 -66q133 -84 166 -242l6 2q22 4 99 81l83 42q89 -13 114 -136q26 -128 -192 -229q-167 -118 -266 -226l1 -6q110 -236 122 -294l12 -59q32 -159 -113 -286 q-100 -63 -144 -72l-18 -4q-236 -48 -368 182zM338 350l7 -35q6 -31 47 -52l41 9q116 34 102 100l-6 30q-59 128 -80 124l-12 -3q-74 -84 -99 -173zM407 1148q22 -109 111 -185q46 9 55 152l-9 41q-57 99 -121 85l-24 -5q-23 -4 -12 -88z" />
<glyph unicode="9" horiz-adv-x="1014" d="M49 788q1 201 27 263q61 189 177 335q112 149 294 212l6 1q148 30 216 -97q33 -47 94 -226l7 -5v-30q85 -59 102 -145q9 -41 -80 -570q-27 -230 -9 -320q-12 -161 -128 -185q-130 5 -148 93l-2 12q-11 53 23 250l30 186l-6 -2l-119 -48q-217 -43 -424 160q-31 39 -60 116 zM297 893l7 -35q63 -86 119 -74l65 13q104 21 117 207q53 71 33 172l-3 17q-26 130 -56 124l-23 -5l-101 -75q-145 -188 -158 -344z" />
<glyph unicode=":" horiz-adv-x="557" d="M187 786q0 228 150 228h24q114 -76 114 -138v-12q0 -159 -90 -198l-60 -18q-138 41 -138 138zM193 198q39 180 114 180l24 6q48 0 102 -78q42 -67 42 -156q-58 -138 -156 -138q-89 0 -126 186z" />
<glyph unicode=";" horiz-adv-x="590" d="M-97 -694q0 146 186 222q216 211 216 522q0 36 -36 156v36q0 144 120 168q122 0 156 -366q0 -259 -162 -576q-231 -282 -330 -282h-12q-87 0 -138 120zM233 1100q22 156 66 156q24 30 54 30q156 -47 156 -156l6 -36q-40 -162 -144 -162q-132 19 -132 132z" />
<glyph unicode="&#x3c;" horiz-adv-x="1372" d="M87 708q0 130 107.5 196t156.5 158q501 552 576 612q108 -43 108 -126q12 0 12 -72q0 -103 -252 -354q-305 -329 -330 -372v-12q5 -32 270 -126q488 -230 516 -264q72 -90 72 -186q0 -106 -120 -162q-86 0 -162 162q-166 114 -336 174q-17 24 -174 60q-336 128 -354 144 q-90 95 -90 168z" />
<glyph unicode="=" horiz-adv-x="1256" d="M146 424q26 138 120 138l288 -12h126q253 51 351.5 28.5t98.5 -153.5q-30 -138 -120 -138l-36 -6h-132l-408 -37h-174q-89 0 -114 180zM146 848q26 138 120 138l288 -12h126q253 51 351.5 28.5t98.5 -153.5q-30 -138 -120 -138l-36 -6h-132l-408 -37h-174q-89 0 -114 180 z" />
<glyph unicode="&#x3e;" horiz-adv-x="1366" d="M87 1434q0 147 96 174h12q27 0 162 -66q91 -62 378 -120q282 -60 366 -60l48 12q62 0 156 -156v-30q0 -210 -330 -912q-75 -276 -180 -276q-144 37 -144 144q0 96 276 636q78 205 78 228v48q0 35 -348 84q-528 116 -528 186q-42 38 -42 108z" />
<glyph unicode="?" horiz-adv-x="1214" d="M132 1668q22 198 144 198l54 6h336q82 0 294 -102q204 -137 204 -276q0 -100 -108 -216q-263 -150 -282 -150q-222 -75 -222 -126v-6q32 -80 54 -198q-20 -96 -132 -96q-74 0 -186 174q-48 144 -48 180q26 186 78 186q37 28 270 138q246 105 246 126q-25 50 -342 66 q-102 -16 -174 -42q-186 22 -186 138zM414 186q25 162 108 162l60 6q51 0 126 -150l-12 -36q2 -48 12 -48q-49 -120 -156 -120q-93 0 -138 186z" />
<glyph unicode="@" horiz-adv-x="1653" d="M100 624q0 278 210 612q172 180 372 246l186 24q162 0 420 -198q246 -281 246 -510v-36q0 -335 -204 -420l-36 -30v-6l138 42q80 0 120 -156q0 -133 -222 -156q-78 -18 -468 -36q-280 0 -498 138q-148 84 -210 216q-54 196 -54 270zM322 546q0 -124 294 -234 q135 -42 186 -42h186v12q-49 0 -138 78q-355 0 -432 186q-36 97 -36 156q0 236 264 444q81 48 132 48h6q200 0 306 -246q81 -119 96 -210l-6 -66v-72l12 -12h18q144 65 144 204v18q0 177 -174 306q-115 138 -264 138l-30 24h-12q-289 0 -480 -336l-48 -156q-24 -70 -24 -192 v-48zM646 708q27 -48 66 -48h60q40 0 114 138v24q-35 66 -102 66q-138 -49 -138 -144v-36z" />
<glyph unicode="A" horiz-adv-x="1395" d="M26 -19q-6 3 -7 19q0 86 166 528q198 528 262 701t183 419q63 110 164 124q5 1 9 0q94 0 134 -282q0 -80 145 -681q0 -30 54 -30q108 -51 108 -168q0 -46 -60 -102q182 -351 214 -443q7 -20 7 -36q0 -57 -89 -57h-24q-97 0 -360 542h-6q-92 0 -462 -54h-5q-52 0 -90 -126 l-136 -294q-58 -78 -113.5 -78t-93.5 18zM476 743q0 -14 30 -18l378 42q-121 473 -145 561h-18l-173 -381q-72 -149 -72 -192v-12z" />
<glyph unicode="B" horiz-adv-x="1315" d="M12 1372q0 50 114 126l72 -18q36 0 78 96q195 225 366 252q144 -38 162 -116.5t18 -207.5q0 -53 -48 -318v-36q12 -19 150 -72q208 -116 330 -468l12 -138v-18q0 -273 -282 -492q-145 -84 -240 -84q-188 0 -300 114q-84 63 -84 174q0 61 138 138h12q52 0 156 -138 q43 -36 66 -36h30q118 0 264 216q24 42 24 108v36q0 115 -126 276q-7 44 -132 96l-84 12q-176 -239 -246 -276q-54 -24 -150 -24v-384q0 -147 -60 -174l-72 -12q-65 0 -126 102l18 468q0 305 -60 798zM312 856h18l180 216q84 152 84 486l-18 12q-112 -56 -192 -270 q-72 -240 -72 -444z" />
<glyph unicode="C" horiz-adv-x="1262" d="M12 558q0 273 174 714q87 208 240 360q112 92 192 96q184 0 246 -300l6 -96v-54q0 -216 -108 -216q-108 26 -108 168q-7 246 -42 246h-18q-198 -148 -312 -600q-36 -129 -36 -288q0 -223 84 -264q95 -84 342 -84q248 0 388 54q36 14 64 14q82 0 100 -116 q0 -141 -322 -181q-159 -20 -286 -20q-130 0 -226 21q-240 88 -330 264q-48 142 -48 282z" />
<glyph unicode="D" horiz-adv-x="1456" d="M97 1586q85 133 233 133q25 0 52 -4q281 -63 505 -241q239 -278 307 -444q106 -204 116 -465q0 -11 1 -23q1 -244 -197 -400q-146 -115 -448 -116l-274 20q-11 0 -63 -64l-64 -21q-146 21 -146 208q0 41 7 90q2 94 2 205q0 347 -19 865zM375 351l6 -1l86 6l170 -78 l112 -22l6 -1q13 0 25 -1q269 0 313 231q6 31 6 67q0 233 -266 626q-215 231 -397 275l-37 -7q-38 -262 -37 -624q-1 -217 13 -471z" />
<glyph unicode="E" horiz-adv-x="1197" d="M0 828l60 174l-12 200l-6 354q0 135 210 162l234 18q504 -36 519 -180q1 -14 1 -26q0 -118 -130 -118q-341 72 -534 72h-12l-30 -24v-482l6 -6h36q648 0 648 -48l24 -36q-54 -112 -114 -132q0 -26 -576 -60q-36 -19 -36 -30l-6 -144q4 -226 36 -240q91 0 456 108 q148 30 242 37h9q86 0 115 -139q-30 -132 -126 -132q-317 0 -478.5 -78t-277.5 -78q-66 0 -168 132q-48 66 -48 360v162q0 48 -42 174z" />
<glyph unicode="F" horiz-adv-x="1363" d="M-10 1564q0 74 108 138l72 18q236 -78 588 -78q350 30 460 69q42 15 73 15q50 0 72 -39q39 -70 39 -120q0 -51 -104 -99l-66 6q-251 -42 -768 -42q15 -451 51 -451h6l606 12q168 0 168 -99t-90 -129q-523 -37 -648 -60l-30 -24q-25 -480 -37 -596.5t-108 -116.5 q-120 42 -120 132q0 270 7 611q-49 56 -60 138v6l42 108q-26 433 -51 433q-23 18 -132 48q-78 60 -78 120z" />
<glyph unicode="G" horiz-adv-x="1479" d="M3 794.5q0 320.5 175.5 624.5t491.5 304q106 0 264 -186q78 -131 78 -210q0 -83 -126 -102q-84 103 -228 240h-12q-176 0 -286.5 -212.5t-116.5 -432.5v-14q0 -212 168 -410q143 -169 361 -169q47 0 98 8q178 28 178 115q0 52 -64 126q-156 85 -276 100q-90 58 -90 126 v12q0 92 120 132q84 21 212 21h174q179 0 272 33q66 0 66 -102v-24q0 -150 -206 -153l-66 -6v-12q94 -151 94 -275q0 -207 -261 -336q-77 -23 -235 -23q-50 0 -108 3q-242 9 -459.5 255.5t-217.5 567z" />
<glyph unicode="H" horiz-adv-x="996" d="M34 328q14 302 32 1309q20 90 132 90q108 0 108 -204l-18 -491v-78q0 -24 138 -24h162q42 0 42 42q0 912 59.5 930t90.5 18q102 0 102 -126l-12 -534l16 -1181q0 -57 -78 -77q-28 -7 -52 -7q-47 0 -83 26q-41 29 -41 370q0 112 4 257h-54q-300 -5 -300 -24 q0 -600 -63 -609q-31 -4 -62 -4q-33 1 -69 5q-56 8 -56 219q0 43 2 93z" />
<glyph unicode="I" horiz-adv-x="1497" d="M0 168q0 94 72 126q174 6 402 6h54q76 0 90 126l8 799q0 198 -24 198h-6q-69 0 -336 -48q-92 0 -118 122q-4 17 -4 31q0 94 143 113q165 22 338.5 52t366.5 30h156q210 0 210 -114.5t-330 -137.5h-72q-66 0 -66 -90q-15 -133 -15 -407q0 -61 1 -128v-360l6 -162l498 -36 q58 0 68 -134q1 -10 1 -18q0 -103 -98 -103q-11 -1 -23 1q-130 14 -416 14l-696 -24h-12q-143 0 -186 90z" />
<glyph unicode="J" horiz-adv-x="1548" d="M0 312q0 67 71 67q47 0 125 -29q196 -74 300 -92t230 -18q181 0 228 84q18 39 18 96v36q0 169 -126 576q-60 250 -90 432l-18 12h-240q-171 0 -210 114l-12 60q0 85 110 87.5t418 2.5h384l288 -6q186 -4 204 -49.5t18 -92.5t-36 -86q-26 -28 -344 -28q-116 0 -270 4 l8 -192q0 -41 114 -522q48 -166 48 -383t-84 -282t-374 -84q-49 -3 -96 -3q-231 0 -420 77q-226 93 -244 219z" />
<glyph unicode="K" horiz-adv-x="1265" d="M3 1619q0 109 138 168h6q133 0 156 -252l36 -528h6q186 146 306 318q204 241 274 241q7 0 12 -2q62 -26 62 -133.5t-210 -321.5l-300 -318v-6q340 -135 492 -292t220 -296q27 -55 27 -95q0 -62 -62 -88q-18 -8 -38 -7q-90 0 -201 166q-216 234 -275 258t-265 90l-6 6h-18 v-42l1 -360q0 -100 -102 -131q-19 -6 -37 -6q-80 0 -143 113l6 204v200q0 1030 -49 1030q0 22 -36 84z" />
<glyph unicode="L" horiz-adv-x="1111" d="M0 246q18 230 87 812l6 180v216l-6 204q0 75 156 114q92 0 108 -150v-54q0 -291 -87 -1208v-18q0 -72 216 -72h90q358 0 442 -13q68 -11 69 -88q0 -18 -4 -38q-19 -113 -68.5 -122t-156.5 -9h-354q-331 0 -396 72q-102 80 -102 174z" />
<glyph unicode="M" horiz-adv-x="1836" d="M6 168l27 1007q-6 229 -6 375.5t38 157.5t133 18h5q92 0 184 -251q192 -386 360 -624l36 -30h12q72 270 79 548t98.5 348t158.5 70q182 0 246 -174q60 -132 114 -510q90 -815 201 -815q120 0 120 -72v-18q0 -135 -180 -198h-24q-123 0 -240 288q-48 130 -165 1055 q-43 162 -60 162h-12q-30 0 -141 -1019q0 -114 -42 -176q-28 -41 -73 -41q-25 0 -53 11q-84 32 -126 116l-219 383q-111 186 -150 282h-18l-6 -30q-18 -953 -66 -995q-42 -37 -107 -37q-10 1 -20 1q-80 6 -104 168z" />
<glyph unicode="N" horiz-adv-x="1374" d="M44 1446q2 200 142 200q127 0 186 -168q580 -947 702 -1077h6q-23 0 -23 274q0 243 18 700l-36 240q0 120 114 162l30 6q120 -24 120 -78l6 -144l11 -1274q-98 -264 -192 -264q-159 0 -726 813h-6q12 -118 18 -524q-9 -276 -54 -276q-2 -15 -78 -36q-145 0 -168 234 q-18 197 -42 968q-29 43 -29 226q1 8 1 18z" />
<glyph unicode="O" horiz-adv-x="1016" d="M89 348q-10 153 -10 286q-1 269 41 461q62 287 150.5 421.5t189.5 161.5q17 5 37 5q93 0 229 -107q164 -128 222 -638q12 -101 12 -193q0 -369 -188 -578q-134 -142 -308 -168l-36 -6q-15 -2 -29 -2q-130 0 -258 177q-37 82 -52 180zM333 833q2 -382 16 -476 q25 -90 108 -90q13 0 27 2q140 21 204 351q34 176 34 326q0 132 -26 245q-53 226 -143 226q-6 0 -11 -1q-56 -41 -124.5 -191.5t-84.5 -391.5z" />
<glyph unicode="P" horiz-adv-x="1120" d="M0 1028v42q0 546 84 546q142 130 446 130h36q332 -8 426 -105t94 -263.5t-155.5 -340t-314.5 -241.5t-340 -122l-6 -18l12 -494q-24 -162 -144 -162h-12q-120 0 -120 300zM272 943q420 132 497 250t77 177q-44 138 -242 147q-26 1 -50 1q-165 0 -278 -52v-12z" />
<glyph unicode="Q" horiz-adv-x="1374" d="M20 538v60q0 324 271 944q141 140 270 156q37 0 90 -66q22 -18 42 -18h18q57 48 102 48q201 -23 324 -120q153 -147 153 -524v-17q-4 -391 -226 -679l-6 -24q0 -51 174 -270l6 -54q0 -111 -150 -180q-101 0 -234 300l-24 24q-175 -84 -300 -84q-359 0 -498 414zM278 604 q0 -216 192 -288l42 -6h66q64 0 132 30q0 15 -138 258q-48 119 -48 174q0 49 108 108l30 6q97 0 204 -264l60 -90h6q138 177 142 480v14q0 292 -153 390q-27 12 -78 12q-116 0 -240 -54l-72 36q-86 -28 -235 -602q-18 -81 -18 -204z" />
<glyph unicode="R" horiz-adv-x="1347" d="M25 1493q14 129 199 166l54 -6q22 -2 47 -2q71 0 163 19q80 17 164 17q46 1 96 -5q136 -14 186 -106q39 -72 39 -168q-1 -26 -3 -54q-14 -131 -199 -415q-10 1 -15 -29q161 -82 288 -241q228 -303 238 -439q4 -62 3 -117q1 -68 -5 -128q-12 -109 -146 -112h-3 q-117 0 -117 194q0 24 2 50q1 13 1 27q0 190 -273 478q-75 44 -140 51l-95 10h-3q-27 0 -140 -39l-25 -3q-12 -114 -12 -534l-2 -18q-11 -99 -141 -103q-5 0 -10 -1q-109 0 -110 85q0 8 1 16q18 388 18 666q0 369 -32 545q-31 62 -31 144q0 25 3 52zM338 1369 q-14 -167 -15 -262q0 -121 24 -123q9 -1 18 -1q178 0 358 375l2 24v7q0 47 -75 51q-12 1 -25 0q-73 0 -171 -22q-114 -26 -116 -49z" />
<glyph unicode="S" horiz-adv-x="1147" d="M15 294q24 137 162 137q28 0 62 -6q91 -16 113 -123l68 -24l101 -18q38 -8 70 -8q125 0 156 118q8 29 8 56q0 110 -127 192q-158 102 -370 334q-190 208 -190 371q0 19 2 37q24 174 170 283q141 106 328 106q6 -1 12 -1q194 -4 265.5 -71t125.5 -320l-5 -29 q-35 -115 -106 -115q-8 0 -17 2q-72 13 -117 167q-38 76 -93 118q-28 21 -69 22q-38 0 -90 -20q-104 -40 -141 -137q-1 -6 -1 -12q0 -53 78 -151q86 -108 322 -299t282 -373q16 -62 17 -121q0 -113 -59 -216q-89 -156 -381 -195q-9 -1 -20 -1q-47 0 -112 12l-71 13 q-112 19 -321 153q-53 58 -53 105q0 7 1 14z" />
<glyph unicode="T" horiz-adv-x="1350" d="M-14 1582q17 162 150 162l252 -24q183 0 903 90q32 5 58 5q113 1 113 -101q0 -126 -150 -159q-87 -24 -342 -42l-90 -28q20 -1165 38 -1317q0 -100 -135 -100h-3q-138 1 -138 82l-6 78l-26 1246h-12q-158 -24 -234 -24h-180q-198 16 -198 132z" />
<glyph unicode="U" horiz-adv-x="1334" d="M1 1528q0 120 174 150q90 0 90 -138q15 -1225 69 -1225l6 -6h6q182 76 324 336q35 78 105 877q44 108 138 108q132 -32 132 -114l-81 -811v-84q0 -195 144 -324h48q89 0 186 18q42 -20 42 -60q-31 -124 -138 -198l-126 -24q-237 0 -366 276h-12l-204 -198 q-125 -84 -156 -84q-27 -12 -78 -12q-143 0 -210 156q-66 142 -66 462v384q-15 405 -27 511z" />
<glyph unicode="V" horiz-adv-x="1103" d="M11 1380v72q0 112 156 138q110 0 138 -246q0 -133 194 -923h6q73 46 182.5 554.5t109.5 728.5q77 96 132 96q132 -20 132 -114q0 -126 -132 -723t-298 -854q-62 -90 -156 -90q-100 0 -258 402q-102 352 -206 959z" />
<glyph unicode="W" horiz-adv-x="1620" d="M17 1470q0 91 162 104q14 1 27 1q135 0 135 -126q36 -279 50 -633q129 626 231 636q7 1 13 1q93 0 151 -137q62 -147 251 -617q63 -227 73 -227q87 176 149 851q0 180 72 372q56 54 138 54h24q96 0 96 -132q0 -37 -48 -120q-48 -341 -90 -702q-94 -471 -185 -617 q-45 -120 -144 -120q-140 0 -210 198q-60 90 -241 647q-21 0 -79 -392.5t-76 -458.5q-37 -42 -96 -42q-112 0 -156 132q-85 525 -115 863q-43 239 -87 305q-46 68 -45 160z" />
<glyph unicode="X" horiz-adv-x="1193" d="M12 1587q0 102 150 120q87 0 192 -162q36 -34 192 -312q29 -66 42 -66l156 432q44 66 132 66h18q96 0 96 -114q-17 -77 -180 -534l-36 -168v-24q128 -223 246 -403q112 -171 112 -271v-11q-6 -101 -94 -101l-30 -6q-103 0 -180 204q-120 203 -156 228h-12q-30 0 -66 -198 q-59 -246 -168 -246l-48 -6q-81 22 -81 128q0 79 44 201q103 290 133 409v36q-56 192 -306 558q-156 163 -156 240z" />
<glyph unicode="Y" horiz-adv-x="932" d="M11 1517q30 139 156 162q138 0 138 -306q0 -241 156 -406h6q43 46 85 191q38 133 38 424v57q0 60 96 102q162 -16 162 -126q0 -218 -176 -790q-58 -282 -58 -470q0 -94 -6 -166.5t-45.5 -111t-110.5 -52.5q-120 34 -120 108l-6 30q28 320 28 416v12v12q-7 15 -136 165 t-171 521q-36 166 -36 228z" />
<glyph unicode="Z" horiz-adv-x="1635" d="M91 1534q0 122 114 162l120 -6h156q267 0 570 24q162 -19 162 -150q0 -59 -144 -318q-216 -402 -433 -736q-78 -117 -114 -204l6 -6h6l618 30l102 -6h228q108 0 108 -105q0 -17 -2 -37q-19 -130 -127 -131q-9 -1 -21 1q-128 14 -306 14q-324 0 -810 -66h-30 q-162 0 -162 126h-6q22 146 84 210q168 218 373.5 565.5t263.5 506.5l-12 12h-90q-450 -16 -549 -18h-4q-95 0 -95 102z" />
<glyph unicode="[" horiz-adv-x="1064" d="M0 234v18q66 170 66 774v66q0 190 -42 258q-18 23 -18 54v6q20 191 96 198q285 35 600 126l150 48q120 -57 120 -216q0 -84 -312 -120q-52 -24 -228 -60q-120 -42 -120 -66v-84l-30 -906q0 -24 36 -30l420 42l72 6q156 -31 156 -144q-32 -162 -138 -162h-42l-114 12 q-373 -54 -480 -54q-141 0 -174 138z" />
<glyph unicode="\" horiz-adv-x="1018" d="M0 1650q0 82 126 132q36 0 198 -198q236 -574 443 -943.5t195 -481.5t-132 -112q-43 0 -99.5 96t-502.5 1081q-84 192 -216 372z" />
<glyph unicode="]" horiz-adv-x="1506" d="M126 1774q0 76 96 108h24q15 0 120 -66q117 -42 402 -42q152 0 330 42q143 -49 144 -222l6 -42l-12 -198v-318q0 -307 114 -570l138 -300q-22 -126 -78 -126q0 -11 -54 -24l-6 6l-234 6q-363 0 -708 -138q-64 0 -102 174q0 165 582 228q246 14 246 30l-90 354 q-54 223 -54 792l-18 18h-342q-330 0 -462 126q-42 51 -42 162z" />
<glyph unicode="^" horiz-adv-x="1285" d="M93 947q0 82 162 234q166 244 414 660q53 54 96 54q187 0 294 -444q124 -343 168 -360l30 -102q-18 -156 -102 -156h-12q-141 0 -192 240q-53 102 -168 444h-6l-384 -582q-57 -168 -156 -168q-61 0 -138 138z" />
<glyph unicode="_" horiz-adv-x="1390" d="M46 63v12q0 91 108 132h6l132 -6q373 42 498 42h336q165 0 210 -84l18 -96q0 -111 -108 -132h-6q-177 36 -258 36l-102 6q-115 0 -654 -54h-66q-60 0 -114 144z" />
<glyph unicode="`" horiz-adv-x="2206" d="M212 642q0 388 132 456l24 12q102 -43 102 -114q12 0 12 -78l-30 -246v-24q0 -115 204 -282q123 -84 354 -84q387 0 822 306q89 153 168 168q105 0 144 -132l18 -36q0 -80 -270 -294q-48 -22 -150 -96q-440 -198 -708 -198q-380 0 -660 246q-162 229 -162 396zM632 828 v138q29 480 96 480q27 36 78 36q114 -39 114 -174v-42l-30 -294v-66q42 -91 42 -138q0 -172 -132 -198h-12q-136 0 -156 258zM1196 1062v108q0 251 96 480l72 72q138 -62 138 -174q-48 -279 -48 -384v-60l54 -264q-57 -132 -144 -132q-168 0 -168 354z" />
<glyph unicode="a" horiz-adv-x="1104" d="M0 444q0 199 90 495q110 260 234 312l126 30q122 0 228 -228q93 -159 168 -258l6 -42v-249q23 -222 96 -222h6q98 0 222 33l60 12q32 0 42 -30q-42 -102 -127 -175.5t-209 -88.5q-9 -1 -17 -1q-115 0 -229 178l-6 24q-26 0 -144 -126q-132 -108 -252 -108 q-162 25 -228 107.5t-66 336.5zM228 414q0 -144 78 -144q110 0 264 246l12 72v60q-2 0 -2 4q0 14 14 71q0 150 -96 312l-24 12h-6q-178 0 -234 -495z" />
<glyph unicode="b" horiz-adv-x="1133" d="M76 113l18 504q0 399 -9 915l-6 36q26 144 120 144q104 0 104 -377q0 -123 -11 -286h6q96 95 286 95l1 1q189 0 351 -193q154 -183 155 -495q-1 -15 -1 -33q-8 -336 -230 -415q-114 -41 -255 -41q-133 0 -289 37v30h-6q-48 -30 -72 -30q-74 0 -138 66q-24 0 -24 42z M358 227l12 -18v-30l72 18q124 -24 212 -24q106 -1 158 35q77 53 77 210q1 32 -3 69q-20 214 -96 298q-93 132 -192 132h-24q-174 -73 -174 -168q-42 -108 -42 -282v-240z" />
<glyph unicode="c" horiz-adv-x="951" d="M18 666q45 234 251 509q88 66 186 66h18q104 0 186 -168q56 -58 111 -282v-24q-21 -121 -112 -121h-16q-106 12 -130 175v84q-20 47 -75 78h-12q-117 -99 -187 -381q-15 -58 -14 -108q0 -191 214 -257l72 -6h36q136 0 234 47q96 48 162 60q7 1 14 1q54 -1 74 -87 q2 -11 3 -21q-1 -86 -161 -167q-180 -91 -421 -97h-12q-231 0 -347 230q-86 171 -86 341q0 64 12 128z" />
<glyph unicode="d" horiz-adv-x="1079" d="M0 498v16q0 260 186 556q140 198 468 198q16 178 16 317q0 170 -24 283q0 112 138 126q102 -42 102 -150q20 -384 56 -1116l30 -284q42 -93 42 -156q-17 -168 -102 -168h-6q-84 0 -180 90l-6 -6q-162 -204 -312 -204h-78q-170 0 -282 204q-48 162 -48 294zM216 486 q0 -216 114 -216h18q157 0 211 104q55 104 63 334q1 19 0 36q0 202 -88 296q-130 -13 -224 -216.5t-94 -283.5v-54z" />
<glyph unicode="e" horiz-adv-x="1113" d="M10 457q-2 23 -2 47q0 264 204 508q222 266 373 265.5t285 -162.5l18 -72q1 -11 1 -22q0 -220 -533 -625q-119 -36 -120 -60v-6q47 -78 150 -78h18q196 0 324 48q278 114 386 114q50 0 64 -24q21 -36 20 -76q0 -44 -25 -92q-304 -165 -601 -208q-90 -13 -164 -13 q-170 1 -256 69q-122 98 -142 387zM236 630h12q61 0 358 293q42 59 42 90v6l-18 18h-24q-110 0 -370 -383v-24z" />
<glyph unicode="f" horiz-adv-x="1165" d="M-4 704q0 90 126 162h84q168 0 168 42v6q-42 294 -42 502q0 286 79 410q123 192 309 192q20 0 42 -2q214 -24 369 -390l18 -120q0 -62 -28 -108q-16 -27 -42 -27q-20 0 -47 15q-60 36 -93 162q-101 228 -216 228h-18q-98 -46 -121 -306q-4 -51 -4 -103q0 -215 76 -453 q229 30 402 30q144 0 168 -60v-6q0 -169 -330 -198l-234 -48q-12 -30 -12 -90q0 -292 18 -400q2 -12 2 -24q0 -90 -122 -146h-6h-4q-131 0 -146 186l12 360l-6 72h-30q-93 0 -222 -10q-13 -1 -26 -1q-104 0 -112 77z" />
<glyph unicode="g" horiz-adv-x="1021" d="M22 458q-8 74 -8 141q0 152 42 270q59 171 190 294.5t342 141.5q12 1 24 1q192 0 288 -267l11 -47l10 -89q31 -282 41 -691q7 -245 7 -429q0 -122 -3 -217q-12 -382 -73.5 -497t-213.5 -132q-23 -3 -47 -3q-225 0 -427 247q-29 47 -35 98l-1 12q-1 8 -1 15q0 49 41 62h5 q66 0 319 -151l74 -10l30 3q99 11 99 360q0 225 -41 590q-15 -2 -114 -73t-223 -85q-13 -2 -26 -2q-107 0 -190 103q-93 115 -120 355zM274 361q6 -52 93 -74q161 17 237 261q22 128 28 456l-1 12q-23 30 -52 30h-5l-12 -2q-88 -9 -205 -167q-91 -155 -91 -380q0 -65 8 -136 z" />
<glyph unicode="h" horiz-adv-x="1114" d="M7 1814q29 66 135 82q15 2 27 2q78 0 78 -84q23 -327 65 -656l12 -138h18q200 186 366 186q85 0 149 -68.5t115 -297.5q29 -98 48 -264q2 -76 1 -142q0 -434 -85 -434h-12q-131 0 -137.5 288.5t-24.5 473.5q-18 180 -85 180h-5q-70 -6 -186 -138q-108 -145 -108 -222 l-6 -390q-20 -146 -96 -162l-48 -6q-96 0 -114 193q-9 96 -9 189t9 182l-95 1034z" />
<glyph unicode="i" horiz-adv-x="514" d="M36 1539q40 174 150 174q106 0 114 -143v-15q0 -119 -112 -119h-16q-136 10 -136 103zM110 1070q44 144 174 162q88 0 88 -505q0 -47 -1 -99q0 -136 24 -420q0 -99 -96 -144q-138 30 -138 114q-22 160 -51 892z" />
<glyph unicode="j" horiz-adv-x="554" d="M-651 -525l6 71q21 232 199 344l24 -2q18 -14 46 -161q-29 -126 -39 -237q-1 -11 -1 -22q0 -152 197 -212l24 -3q9 -1 17 -1q154 0 281 240q90 128 120 471q6 63 6 148q0 329 -86 986l1 78l1 6q7 80 155 125q97 -36 97 -181q0 -21 -2 -44l77 -893l-4 -325 q-40 -448 -395 -778q-183 -78 -269 -78q-8 0 -15 1l-18 1q-244 22 -407 302q-16 87 -16 140q0 13 1 24zM-14 1840v18q0 90 66 114q0 11 36 30q156 -23 156 -156q24 -57 24 -120q0 -95 -78 -126q-137 81 -204 240z" />
<glyph unicode="k" horiz-adv-x="1194" d="M13 1847q0 119 96 168l6 6q144 -14 150 -282q0 -278 26 -796l24 -18h12q106 32 384 390l84 24q102 -21 102 -96q0 -122 -120 -234q-264 -270 -264 -300q3 -30 121.5 -102t346.5 -216q186 -172 186 -272t-85 -100t-137.5 57t-216.5 163.5t-347 199.5h-12q-27 0 -30 -180 q12 -40 12 -83q-1 -40 -11 -84q-22 -89 -91 -89q-89 0 -120.5 54t-60.5 565t-31 847z" />
<glyph unicode="l" horiz-adv-x="490" d="M74 109l33 948q-25 424 -25 550q0 22 1 34q39 129 137 129h10q109 -7 108 -236q0 -36 -2 -78q-2 -24 -2 -79q0 -119 8 -387q5 -178 5 -357q0 -211 -7 -421q-43 -212 -151 -212h-8h-6q-105 44 -101 109z" />
<glyph unicode="m" horiz-adv-x="1479" d="M-7 1101q34 156 155 165h10q111 0 111 -195v-72h18q0 25 144 126q28 5 53 5q70 0 112 -38q57 -51 99 -123l6 -18h12q177 222 324 222q272 0 337 -735q0 -72 27 -252q5 -32 5 -58q0 -122 -104 -122h-24q-150 44 -150 150q-29 621 -45 670t-64 83h-12q-106 0 -197 -435 l-6 -84v-306q0 -57 -132 -84q-150 0 -150 348q-19 453 -61 477q-29 0 -73 -141q-40 -129 -40 -395v-49v-54q0 -103 -84 -150l-54 -6q-138 39 -138 210q-37 697 -79 861z" />
<glyph unicode="n" horiz-adv-x="1024" d="M16 1078q84 114 144 114q64 0 108 -90h12q189 186 270 186h18q12 1 24 1q186 0 262 -288q80 -306 106 -791q-37 -210 -120 -210h-6q-80 0 -115 30t-46 243t-16.5 341t-46.5 284q-51 112 -78 114q-26 0 -114 -150l-60 -180q-64 -303 -64 -364l6 -144q-9 -155 -136 -155h-2 q-129 1 -132 149q1 131 1 245q0 512 -15 665z" />
<glyph unicode="o" horiz-adv-x="810" d="M0 594q0 606 66 606q45 72 144 72h36q17 2 33 2q185 0 317 -230q142 -250 142 -571.5t-276 -454.5q-62 -14 -116 -14q-154 0 -236 116q-110 156 -110 474zM246 744q-11 -108 -11 -187q-1 -121 25 -171q42 -83 106 -86q122 0 133 254q1 19 1 37q0 231 -128 411h-12 q-53 0 -114 -258z" />
<glyph unicode="p" horiz-adv-x="1010" d="M22 771v102q0 332 144 414q46 18 84 18h90q226 -40 403.5 -196t192.5 -537q1 -14 1 -29q0 -356 -363 -480l-156 -30l-102 18l6 -498q0 -162 -114 -162q-128 0 -150 216q-36 854 -36 1164zM226 861q0 -60 72 -90l12 -66l-6 -312q42 0 84 -84l24 -6q209 0 288 168 q24 57 24 138q-14 335 -288 438q-72 30 -120 30h-42q-48 0 -48 -198v-18z" />
<glyph unicode="q" horiz-adv-x="1117" d="M0 353v66q0 250 300 588q125 120 234 120q99 0 216 -114q138 -246 138 -480q0 -48 -78 -174q309 -136 378 -342q60 -160 108 -342q42 -77 42 -234q0 -432 -432 -630l-192 -36q-348 0 -468 288q-30 72 -30 270q52 342 186 768l-42 18l-126 -6q-142 0 -234 240zM222 389 q15 -30 48 -30h36q185 0 258 216q0 66 48 192v36q-21 78 -66 78q-85 0 -204 -180q-91 -123 -108 -210q-12 -26 -12 -96v-6zM450 -757q0 -222 180 -222h6q214 0 330 108q90 44 150 222l12 102v54q-45 412 -138 504q-152 144 -198 144h-48q-111 0 -288 -798z" />
<glyph unicode="r" horiz-adv-x="944" d="M0 320v826q0 96 102 96q132 -28 132 -144q0 -72 18 -72h6q17 0 132 78q152 66 246 66q190 0 330 -162v-18q-8 -84 -72 -84q-94 24 -168 24h-60q-225 0 -360 -216q-48 -116 -54 -334l12 -222q0 -104 -150 -144q-114 0 -114 306z" />
<glyph unicode="s" horiz-adv-x="935" d="M1 346q21 114 186 156q66 -29 66 -78v-6q-30 -39 -30 -60v-6q0 -51 228 -114h102q62 0 72 78v18q0 132 -330 432q-138 156 -138 258q6 211 207 211q16 0 32 -1q234 -18 314 -93q73 -69 73 -123q-1 -4 -1 -9q-6 -57 -74 -57t-167 60h-30q-84 -14 -84 -36v-12 q13 -39 282 -294q178 -200 181 -358v-8q0 -152 -109 -222q-112 -72 -240 -72q-238 0 -378.5 116t-161.5 220z" />
<glyph unicode="t" horiz-adv-x="1056" d="M-61 1099v7q0 89 98 93l66 3l276 16l-21 447q10 235 104 239l18 1h6q99 0 120 -127q-9 -127 -9 -240q0 -167 20 -303l453 8h4q74 -1 102 -103q5 -18 5 -33q0 -74 -120 -81q-65 -30 -441 -61q-9 -6 -9 -145q0 -216 21 -751q-31 -68 -129 -72h-10q-116 0 -120 109 q-3 67 -17 816l-1 18q-403 4 -409 129z" />
<glyph unicode="u" horiz-adv-x="937" d="M33 1084q16 144 108 144h6q132 0 132 -240q-3 -98 -4 -181q0 -354 59 -455q41 24 179 516q30 94 54 282q53 78 90 78q126 -17 126 -108v-84l-12 -96v-72q-4 -118 -4 -212q0 -331 47 -364q32 -72 150 -72q36 0 36 -42q-24 -156 -138 -156q-140 0 -288 228h-12 q-132 -204 -258 -204q-60 0 -186 186q-76 214 -76 603q0 73 3 153z" />
<glyph unicode="v" horiz-adv-x="835" d="M10 1061q25 77 102 126h18q154 0 192 -420q69 -264 90 -264q47 0 168 786q37 66 78 66q138 -31 138 -78q0 -296 -132 -870q-102 -312 -252 -312l-24 -6q-120 56 -228 342q-48 149 -126 534q-12 0 -24 96z" />
<glyph unicode="w" horiz-adv-x="1316" d="M-13 872v216q0 125 96 162h6q101 0 114 -348q0 -307 114 -570h12q39 28 114 300q18 53 24 246q56 114 120 114q120 -28 120 -120l6 -102v-90q0 -164 150 -354l18 -12h42q102 0 102 246v12q-15 293 -54 306l-30 -6q-94 0 -114 132q43 150 144 150h18q183 0 264 -522 l12 -126q0 -235 -192 -408q-100 -60 -186 -60q-123 52 -300 246h-12q-130 -219 -246 -264q-84 0 -210 186q-86 159 -120 468z" />
<glyph unicode="x" horiz-adv-x="1005" d="M12 1100q0 115 138 126q132 -27 155 -62t175 -238q142 330 240 420l54 12q98 0 138 -144q-41 -107 -120 -240q-126 -307 -126 -336v-48q27 -21 78 -114q231 -269 231 -360q0 -89 -171 -118q-74 0 -246 304h-24q-78 -300 -161 -300q-186 0 -186 150q0 56 161 456v18 q-42 120 -198 288q-138 109 -138 186z" />
<glyph unicode="y" horiz-adv-x="923" d="M-31 -778q-8 69 -8 131q0 174 66 294q49 54 125 64l15 -23l28 -136q-21 -85 -21 -123q0 -7 1 -12l4 -84q23 -182 174 -182q17 0 36 2l24 3q217 27 231 627q-6 246 -27 351q-20 100 -54 100h-3q-111 -185 -216 -212q-20 -5 -39 -5q-81 0 -147 94q-81 116 -107 326l-8 65 q31 658 66 662q25 88 91 96q6 1 12 1q69 0 109 -106l4 -30q-30 -342 -30 -545q0 -105 8 -173l6 -47l9 -29l18 2q64 44 124 269q33 111 71 524q38 108 75 124q142 -28 154 -120l3 -24l-18 -414l16 -125q100 -376 122 -712q-20 -428 -75 -572q-64 -204 -222 -305 q-56 -43 -115 -51l-53 -6q-36 -4 -70 -4q-229 0 -342 207z" />
<glyph unicode="z" horiz-adv-x="1005" d="M17 115q0 95 626 771v6q-50 -2 -104 -2q-118 0 -252 8q-196 11 -219 50.5t-23 109.5q0 55 118.5 75.5t506.5 42.5q148 0 209 -159v-22q0 -162 -482 -727q324 10 435 22q8 1 16 0q97 0 120 -147q-10 -125 -248 -125h-21q-237 5 -432 6h-35q-1 0 -3 -1q-212 0 -212 92z" />
<glyph unicode="{" horiz-adv-x="1351" d="M205 856v24q0 141 210 222q117 73 120 108q-98 74 -156 450v18q0 171 114 300q134 138 360 138q331 -52 438 -150l24 -72q-36 -114 -90 -114l-192 72l-138 12h-78q-186 -46 -186 -174q0 -192 84 -288l150 -198q12 -14 24 -96q0 -68 -114 -168v-6q102 -132 102 -162 q0 -147 -288 -450q0 -13 -54 -84q-48 -97 -48 -132q0 -129 312 -180q246 0 246 -102v-30q0 -122 -186 -138h-6q-449 0 -612 336q-12 20 -24 114q0 183 300 564v12q-258 25 -258 78q-54 41 -54 96z" />
<glyph unicode="|" horiz-adv-x="932" d="M-8 991q39 120 114 120l18 6q126 0 270 -306q52 -88 84 -186l72 -102h6q36 199 90 714q38 96 102 96q120 0 162 -168q-156 -1309 -156 -1428l-48 -624v-54q0 -51 12 -78q-37 -144 -144 -144h-36q-95 0 -126 144l-6 36q90 802 90 1020v48q-49 141 -141.5 303t-362.5 603z " />
<glyph unicode="}" horiz-adv-x="1351" d="M232 1883l24 72q107 98 438 150q226 0 360 -138q114 -129 114 -300v-18q-58 -376 -156 -450q3 -35 120 -108q210 -81 210 -222v-24q0 -55 -54 -96q0 -53 -258 -78v-12q300 -381 300 -564q-12 -94 -24 -114q-163 -336 -612 -336h-6q-186 16 -186 138v30q0 102 246 102 q312 51 312 180q0 35 -48 132q-54 71 -54 84q-288 303 -288 450q0 30 102 162v6q-114 100 -114 168q12 82 24 96l150 198q84 96 84 288q0 128 -186 174h-78l-138 -12l-192 -72q-54 0 -90 114z" />
<glyph unicode="~" horiz-adv-x="2327" d="M151 918q0 166 294 288q101 30 318 54q115 -31 162 -114q134 -234 258 -264q176 -54 354 -60q540 24 540 60q50 36 108 36q90 0 90 -126q0 -110 -96 -156q-223 -54 -738 -54q-498 0 -672 378q-46 66 -84 66h-42q-224 0 -438 -174q-44 0 -54 66z" />
<glyph unicode="&#xa1;" horiz-adv-x="713" d="M273 1844q42 192 144 192h12q120 0 162 -210q-56 -132 -168 -132h-30q-81 0 -120 150zM332 1418q46 31 81 38q155 -8 177 -116l9 -41q26 -126 47 -958q34 -281 -36 -296q-52 -35 -90 -43q-76 -16 -98.5 77t-67.5 985q-68 323 -22 354z" />
<glyph unicode="&#xa2;" horiz-adv-x="993" d="M29 381q34 118 132 330l4 8q-19 29 -36 63q-119 236 -74 469.5t251 508.5q88 66 186 66h18q35 0 67 -19l52 170q49 66 96 66h18q108 -62 108 -204q-237 -687 -382 -1015l6 -2l72 -6h36q136 0 158.5 15.5t88 27.5t88 -85.5t-83 -156.5t-346.5 -65q-68 -2 -125 16 l-112 -283q-51 -48 -96 -48q-83 0 -126 144zM276 1188q-33 -129 6 -216q129 298 219 585q-15 4 -27 11h-12q-116 -98 -186 -380z" />
<glyph unicode="&#xa3;" horiz-adv-x="1278" d="M-4 704q0 90 126 162h84q168 0 168 42v6q-116 434 21 648.5t351 190.5t265.5 -121t-8 -156.5t-156.5 18.5q-25 19 -140 19h-18q-98 -46 -113 -175t80 -424q229 30 402 30q144 0 156 -117.5t-318 -146.5l-234 -48q-12 -30 -12 -90q0 -152 5 -255l152 -6h126 q61 51 159.5 28.5t98.5 -153.5q-30 -138 -120 -138l-36 -6h-132l-216 -37h-133q-3 -2 -6 -3h-6q-20 0 -38 3q-22 3 -39 17q-63 41 -73 166l12 360l-6 72h-30q-93 0 -222 -10t-138 76z" />
<glyph unicode="&#xa4;" horiz-adv-x="1014" />
<glyph unicode="&#xa5;" horiz-adv-x="1262" />
<glyph unicode="&#xa6;" horiz-adv-x="682" d="M217.5 1639.5q17.5 98.5 119.5 98.5q108 -30 108 -120l4 -36v-132l18 -188v-174q0 -89 -140 -114q-107 26 -107 120l15 137v126q-35 184 -17.5 282.5zM222.5 737.5q17.5 98.5 119.5 98.5q108 -30 108 -120l4 -36v-132l18 -188v-174q0 -89 -140 -114q-107 26 -107 120 l15 137v126q-35 184 -17.5 282.5z" />
<glyph unicode="&#xa7;" horiz-adv-x="1004" d="M1 346q21 114 186 156q66 -29 66 -78v-6q-30 -39 -30 -60v-6q0 -51 228 -114h102q62 0 72 78v18q0 67 -85 177q-307 97 -407 431q43 269 184 290q-38 37 -81 76q-138 156 -138 258q6 228 239.5 210t313 -93t73 -132t-74.5 -57t-167 60h-30q-84 -14 -84 -36v-12 q13 -39 282 -294q31 -35 58 -69l2 -2q67 -64 93 -135t28 -151q3 -147 -92 -219q148 -179 151 -323q3 -159 -109 -231t-240 -72q-238 0 -378.5 116t-161.5 220zM400 981q-67 -74 116 -198q42 12 50 75v18q0 54 -55 136q-111 -9 -111 -31z" />
<glyph unicode="&#xa8;" horiz-adv-x="816" d="M43 1663q0 107 111 157q152 -10 152 -111v-17q-11 -104 -75 -104l-71 -8q-113 0 -113 58zM446 1676q0 108 111 158q152 -11 152 -112v-16q-11 -105 -75 -105l-71 -8q-113 0 -113 58z" />
<glyph unicode="&#xa9;" horiz-adv-x="1674" />
<glyph unicode="&#xaa;" horiz-adv-x="648" />
<glyph unicode="&#xab;" horiz-adv-x="1890" d="M55 569q0 130 107.5 196t299.5 297t283.5 239.5t119 -36t6 -129t-107.5 -153.5q-305 -329 -330 -372v-12q5 -32 270 -126q231 -101 281 -163t9.5 -125.5t-95.5 -55.5t-399 128q-336 128 -354 144q-90 95 -90 168zM801 623q0 130 107.5 196t299.5 297t283.5 239.5t119 -36 t6 -129t-107.5 -153.5q-305 -329 -330 -372v-12q5 -32 270 -126q231 -101 281 -163t9.5 -125.5t-95.5 -55.5t-399 128q-336 128 -354 144q-90 95 -90 168z" />
<glyph unicode="&#xac;" horiz-adv-x="1014" />
<glyph unicode="&#xad;" d="M146 848q26 138 120 138l288 -12h126q463 56 561.5 33.5t98.5 -153.5q-30 -138 -120 -138l-36 -6h-132l-618 -42h-174q-89 0 -114 180z" />
<glyph unicode="&#xae;" horiz-adv-x="1674" />
<glyph unicode="&#xaf;" d="M97 1860q26 104 120 104l288 -9h126q463 42 561.5 25t98.5 -115q-30 -104 -120 -104l-36 -4h-132l-618 -32h-174q-89 0 -114 135z" />
<glyph unicode="&#xb0;" horiz-adv-x="854" d="M97.5 1571q13.5 185 121 276.5t264 62.5t205 -160t13.5 -296t-216 -219.5t-291 48.5t-96.5 288zM298.5 1522q6.5 -117 94.5 -117t136 109.5t-76 200.5h-45q-116 -76 -109.5 -193z" />
<glyph unicode="&#xb1;" horiz-adv-x="1391" d="M103 833q0 141 162 156q258 12 258 36v6q0 92 -60 288q19 180 120 180q154 0 186 -456q372 12 416 4t75 -121t-197 -165h-84q-192 -12 -192 -42q0 -255 44 -366q0 -39 -60 -91.5t-174 25.5q-31 37 -32 150q-14 276 -30 276q-61 -12 -312 -24q-92 0 -120 144zM216 77 q20 107 93 107l223 -9h98q358 43 434.5 26t76.5 -119q-23 -107 -93 -107l-28 -4h-102l-479 -33h-135q-69 0 -88 139z" />
<glyph unicode="&#xb2;" horiz-adv-x="1014" />
<glyph unicode="&#xb3;" horiz-adv-x="1014" />
<glyph unicode="&#xb4;" horiz-adv-x="617" d="M137 1461l163 207q128 248 156 272q114 50 157 -1q71 -85 -70 -309q-36 -102 -190 -231l-9 -7q-119 -101 -197 -8q-24 28 -10 77z" />
<glyph unicode="&#xb5;" horiz-adv-x="1180" />
<glyph unicode="&#xb6;" horiz-adv-x="1024" />
<glyph unicode="&#xb7;" horiz-adv-x="585" d="M80 1075q-5 240 186.5 225.5t191.5 -159.5v-24q-16 -150 -108 -150l-102 -12q-162 0 -162 84z" />
<glyph unicode="&#xb8;" horiz-adv-x="806" d="M131.5 -456q14.5 115 136.5 97q144 -26 165 45.5t-115 157.5q-45 83 12 278l207 6q6 -100 40 -243q98 -79 87 -195t-86.5 -193.5t-365.5 -71.5q-95 4 -80.5 119z" />
<glyph unicode="&#xb9;" horiz-adv-x="1014" />
<glyph unicode="&#xba;" horiz-adv-x="718" />
<glyph unicode="&#xbb;" horiz-adv-x="1890" d="M73.5 238.5q-40.5 63.5 9.5 125.5t281 163q265 94 270 126v12q-25 43 -330 372q-86 69 -107.5 153.5t6 129t119 36t283.5 -239.5t299.5 -297t107.5 -196q0 -73 -90 -168q-18 -16 -354 -144q-344 -120 -399 -128t-95.5 55.5zM819.5 184.5q-40.5 63.5 9.5 125.5t281 163 q265 94 270 126v12q-25 43 -330 372q-86 69 -107.5 153.5t6 129t119 36t283.5 -239.5t299.5 -297t107.5 -196q0 -73 -90 -168q-18 -16 -354 -144q-344 -120 -399 -128t-95.5 55.5z" />
<glyph unicode="&#xbc;" horiz-adv-x="1708" />
<glyph unicode="&#xbd;" horiz-adv-x="1964" />
<glyph unicode="&#xbe;" horiz-adv-x="1708" />
<glyph unicode="&#xbf;" horiz-adv-x="1214" d="M132 378q0 100 108 216q263 150 282 150q222 75 222 126v6q-32 80 -54 198q20 96 132 96q74 0 186 -174q48 -144 48 -180q-26 -186 -78 -186q-37 -28 -270 -138q-246 -105 -246 -126q25 -50 342 -66q102 16 174 42q186 -22 186 -138q-22 -198 -144 -198l-54 -6h-336 q-82 0 -294 102q-204 137 -204 276zM588 1668l12 36q-2 48 -12 48q49 120 156 120q93 0 138 -186q-25 -162 -108 -162l-60 -6q-51 0 -126 150z" />
<glyph unicode="&#xc0;" horiz-adv-x="1395" d="M25.5 -19q-38.5 18 159.5 546.5t262 701.5t183 419q63 109 164 123.5t143 -281.5q0 -80 145 -681q0 -30 54 -30q108 -51 108 -168q0 -46 -60 -102q183 -351 214.5 -443.5t-82.5 -92.5h-24q-97 0 -360 542h-6q-92 0 -462 -54h-5q-52 0 -90 -126l-136 -294 q-58 -78 -113.5 -78t-94 18zM352 2210q19 64 145 62q34 -11 248 -191l70 -57q32 -39 8.5 -114.5t-119 -56.5t-168.5 99q-217 152 -184 258zM476 743q0 -14 30 -18l378 42q-121 473 -145 561h-18l-173 -381q-72 -149 -72 -192v-12z" />
<glyph unicode="&#xc1;" horiz-adv-x="1395" d="M25.5 -19q-38.5 18 159.5 546.5t262 701.5t183 419q63 109 164 123.5t143 -281.5q0 -80 145 -681q0 -30 54 -30q108 -51 108 -168q0 -46 -60 -102q183 -351 214.5 -443.5t-82.5 -92.5h-24q-97 0 -360 542h-6q-92 0 -462 -54h-5q-52 0 -90 -126l-136 -294 q-58 -78 -113.5 -78t-94 18zM476 743q0 -14 30 -18l378 42q-121 473 -145 561h-18l-173 -381q-72 -149 -72 -192v-12zM755 1885q-20 65 7 99l60 50q183 155 314 181q107 1 124 -54q28 -92 -260 -239q-62 -69 -143.5 -85.5t-101.5 48.5z" />
<glyph unicode="&#xc2;" horiz-adv-x="1395" d="M25.5 -19q-38.5 18 159.5 546.5t262 701.5t183 419q63 109 164 123.5t143 -281.5q0 -80 145 -681q0 -30 54 -30q108 -51 108 -168q0 -46 -60 -102q183 -351 214.5 -443.5t-82.5 -92.5h-24q-97 0 -360 542h-6q-92 0 -462 -54h-5q-52 0 -90 -126l-136 -294 q-58 -78 -113.5 -78t-94 18zM426.5 1871.5q-45.5 69.5 47 163.5t132 169.5t135 103t155 -79.5t140.5 -231t45.5 -176t-90 -52t-127.5 122.5t-100 148.5l-9 2q-25 2 -99.5 -93.5t-104.5 -109.5q-79 -37 -124.5 32.5zM426.5 1871.5q-45.5 69.5 47 163.5t132 169.5t135 103 t155 -79.5t140.5 -231t45.5 -176t-90 -52t-127.5 122.5t-100 148.5l-9 2q-25 2 -99.5 -93.5t-104.5 -109.5q-79 -37 -124.5 32.5zM476 743q0 -14 30 -18l378 42q-121 473 -145 561h-18l-173 -381q-72 -149 -72 -192v-12z" />
<glyph unicode="&#xc3;" horiz-adv-x="1395" d="M25.5 -19q-38.5 18 159.5 546.5t262 701.5t183 419q63 109 164 123.5t143 -281.5q0 -80 145 -681q0 -30 54 -30q108 -51 108 -168q0 -46 -60 -102q183 -351 214.5 -443.5t-82.5 -92.5h-24q-97 0 -360 542h-6q-92 0 -462 -54h-5q-52 0 -90 -126l-136 -294 q-58 -78 -113.5 -78t-94 18zM262 2003.5q-45 96.5 36.5 121.5t212.5 40t224.5 -84.5t195.5 -53t176 46.5t76.5 -64.5t-188.5 -139t-322.5 24t-248.5 55.5t-162 53.5zM476 743q0 -14 30 -18l378 42q-121 473 -145 561h-18l-173 -381q-72 -149 -72 -192v-12z" />
<glyph unicode="&#xc4;" horiz-adv-x="1395" d="M25.5 -19q-38.5 18 159.5 546.5t262 701.5t183 419q63 109 164 123.5t143 -281.5q0 -80 145 -681q0 -30 54 -30q108 -51 108 -168q0 -46 -60 -102q183 -351 214.5 -443.5t-82.5 -92.5h-24q-97 0 -360 542h-6q-92 0 -462 -54h-5q-52 0 -90 -126l-136 -294 q-58 -78 -113.5 -78t-94 18zM406 1956q0 122 190 209h5q105 -42 105 -157v-19q-13 -118 -86 -118l-81 -10q-128 0 -128 67zM476 743q0 -14 30 -18l378 42q-121 473 -145 561h-18l-173 -381q-72 -149 -72 -192v-12zM843 1964q0 122 191 209h4q105 -42 105 -157v-19 q-13 -119 -86 -119l-80 -9q-129 0 -129 66z" />
<glyph unicode="&#xc5;" horiz-adv-x="1395" d="M25.5 -19q-38.5 18 159.5 546.5t262 701.5t183 419q63 109 164 123.5t143 -281.5q0 -80 145 -681q0 -30 54 -30q108 -51 108 -168q0 -46 -60 -102q183 -351 214.5 -443.5t-82.5 -92.5h-24q-97 0 -360 542h-6q-92 0 -462 -54h-5q-52 0 -90 -126l-136 -294 q-58 -78 -113.5 -78t-94 18zM476 743q0 -14 30 -18l378 42q-121 473 -145 561h-18l-173 -381q-72 -149 -72 -192v-12zM496.5 1789q-41.5 90 138.5 213t313 70t125.5 -105.5t-33.5 -129.5q-46 -95 -149 -153l-32 -17q-107 -60 -247 -28q-74 60 -115.5 150zM687 1851l10 -17 q22 -39 103 -21l30 12l18 10q50 33 41 51l-14 24q-26 46 -151 -10l-28 -16q-21 -12 -9 -33z" />
<glyph unicode="&#xc6;" horiz-adv-x="2202" d="M233.5 2q-38.5 18 226 644.5t379 829.5t210.5 207t240 18l234 18q504 -37 519 -180.5t-129 -143.5q-341 72 -628 15h-12l-30 -24l57 -430l6 -6h36q685 5 685 -43l24 -36q-54 -112 -114 -132q0 -26 -613 -65q-36 -19 -36 -30l31 -139q4 -226 36 -240q91 0 456 108 q149 30 242.5 37t123.5 -139q-30 -132 -126 -132q-317 0 -478 -78q-99 -48 -181 -66q-21 -22 -76 -22h-24q-24 0 -57 32q-48 32 -147 510h-6q-92 0 -420 -28l-221 -425q-58 -78 -113.5 -78t-94 18zM747 764q0 -14 30 -18l263 21q-28 410 -42 519h-18q-233 -467 -233 -510 v-12z" />
<glyph unicode="&#xc7;" horiz-adv-x="1262" d="M12 558q0 273 174 714q87 208 240 360q112 92 192 96q184 0 246 -300l6 -96v-54q0 -216 -108 -216q-108 26 -108 168q-7 246 -42 246h-18q-198 -148 -312 -600q-36 -129 -36 -288q0 -223 84 -264q95 -84 342 -84t387.5 54t164.5 -102q0 -141 -322 -181t-512 1 q-240 88 -330 264q-48 142 -48 282zM152.5 -456q14.5 115 136.5 97q144 -26 165 45.5t-115 157.5q-45 83 12 278l207 6q6 -100 40 -243q98 -79 87 -195t-86.5 -193.5t-365.5 -71.5q-95 4 -80.5 119z" />
<glyph unicode="&#xc8;" horiz-adv-x="1197" d="M0 828l60 174l-12 200l-6 354q0 135 210 162l234 18q504 -37 519 -180.5t-129 -143.5q-341 72 -534 72h-12l-30 -24v-482l6 -6h36q648 0 648 -48l24 -36q-54 -112 -114 -132q0 -26 -576 -60q-36 -19 -36 -30l-6 -144q4 -226 36 -240q91 0 456 108q149 30 242.5 37 t123.5 -139q-30 -132 -126 -132q-317 0 -478.5 -78t-277.5 -78q-66 0 -168 132q-48 66 -48 360v162q0 48 -42 174zM40 2145q17 55 124 54q131 -26 314 -181l59 -50q28 -34 7.5 -99t-101.5 -48.5t-144 85.5q-287 147 -259 239z" />
<glyph unicode="&#xc9;" horiz-adv-x="1197" d="M0 828l60 174l-12 200l-6 354q0 135 210 162l234 18q504 -37 519 -180.5t-129 -143.5q-341 72 -534 72h-12l-30 -24v-482l6 -6h36q648 0 648 -48l24 -36q-54 -112 -114 -132q0 -26 -576 -60q-36 -19 -36 -30l-6 -144q4 -226 36 -240q91 0 456 108q149 30 242.5 37 t123.5 -139q-30 -132 -126 -132q-317 0 -478.5 -78t-277.5 -78q-66 0 -168 132q-48 66 -48 360v162q0 48 -42 174zM508 1891q-20 65 7 99l60 50q183 155 314 181q107 1 124 -54q28 -92 -260 -239q-62 -69 -143.5 -85.5t-101.5 48.5z" />
<glyph unicode="&#xca;" horiz-adv-x="1197" d="M0 828l60 174l-12 200l-6 354q0 135 210 162l234 18q504 -37 519 -180.5t-129 -143.5q-341 72 -534 72h-12l-30 -24v-482l6 -6h36q648 0 648 -48l24 -36q-54 -112 -114 -132q0 -26 -576 -60q-36 -19 -36 -30l-6 -144q4 -226 36 -240q91 0 456 108q149 30 242.5 37 t123.5 -139q-30 -132 -126 -132q-317 0 -478.5 -78t-277.5 -78q-66 0 -168 132q-48 66 -48 360v162q0 48 -42 174zM426.5 1871.5q-45.5 69.5 47 163.5t132 169.5t135 103t155 -79.5t140.5 -231t45.5 -176t-90 -52t-127.5 122.5t-100 148.5l-9 2q-25 2 -99.5 -93.5 t-104.5 -109.5q-79 -37 -124.5 32.5zM426.5 1871.5q-45.5 69.5 47 163.5t132 169.5t135 103t155 -79.5t140.5 -231t45.5 -176t-90 -52t-127.5 122.5t-100 148.5l-9 2q-25 2 -99.5 -93.5t-104.5 -109.5q-79 -37 -124.5 32.5z" />
<glyph unicode="&#xcb;" horiz-adv-x="1197" d="M0 828l60 174l-12 200l-6 354q0 135 210 162l234 18q504 -37 519 -180.5t-129 -143.5q-341 72 -534 72h-12l-30 -24v-482l6 -6h36q648 0 648 -48l24 -36q-54 -112 -114 -132q0 -26 -576 -60q-36 -19 -36 -30l-6 -144q4 -226 36 -240q91 0 456 108q149 30 242.5 37 t123.5 -139q-30 -132 -126 -132q-317 0 -478.5 -78t-277.5 -78q-66 0 -168 132q-48 66 -48 360v162q0 48 -42 174zM172 1899q0 107 111 157q152 -10 152 -111v-17q-11 -104 -75 -104l-71 -8q-113 0 -113 58zM575 1912q0 108 111 158q152 -11 152 -112v-16q-11 -105 -75 -105 l-71 -8q-113 0 -113 58z" />
<glyph unicode="&#xcc;" horiz-adv-x="1497" d="M0 168q0 94 72 126q174 6 402 6h54q76 0 90 126l8 799q0 198 -24 198h-6q-69 0 -336 -48q-92 0 -118 122t139 144t338.5 52t366.5 30h156q210 0 210 -114.5t-330 -137.5h-72q-66 0 -66 -90q-18 -163 -14 -535v-360l6 -162l498 -36q58 0 68 -133.5t-119.5 -120 t-416.5 13.5l-696 -24h-12q-143 0 -186 90zM40 2145q17 55 124 54q131 -26 314 -181l59 -50q28 -34 7.5 -99t-101.5 -48.5t-144 85.5q-287 147 -259 239z" />
<glyph unicode="&#xcd;" horiz-adv-x="1497" d="M0 168q0 94 72 126q174 6 402 6h54q76 0 90 126l8 799q0 198 -24 198h-6q-69 0 -336 -48q-92 0 -118 122t139 144t338.5 52t366.5 30h156q210 0 210 -114.5t-330 -137.5h-72q-66 0 -66 -90q-18 -163 -14 -535v-360l6 -162l498 -36q58 0 68 -133.5t-119.5 -120 t-416.5 13.5l-696 -24h-12q-143 0 -186 90zM797 1901q-20 65 7 99l60 50q183 155 314 181q107 1 124 -54q28 -92 -260 -239q-62 -69 -143.5 -85.5t-101.5 48.5z" />
<glyph unicode="&#xce;" horiz-adv-x="1497" d="M0 168q0 94 72 126q174 6 402 6h54q76 0 90 126l8 799q0 198 -24 198h-6q-69 0 -336 -48q-92 0 -118 122t139 144t338.5 52t366.5 30h156q210 0 210 -114.5t-330 -137.5h-72q-66 0 -66 -90q-18 -163 -14 -535v-360l6 -162l498 -36q58 0 68 -133.5t-119.5 -120 t-416.5 13.5l-696 -24h-12q-143 0 -186 90zM426.5 1871.5q-45.5 69.5 47 163.5t132 169.5t135 103t155 -79.5t140.5 -231t45.5 -176t-90 -52t-127.5 122.5t-100 148.5l-9 2q-25 2 -99.5 -93.5t-104.5 -109.5q-79 -37 -124.5 32.5zM426.5 1871.5q-45.5 69.5 47 163.5 t132 169.5t135 103t155 -79.5t140.5 -231t45.5 -176t-90 -52t-127.5 122.5t-100 148.5l-9 2q-25 2 -99.5 -93.5t-104.5 -109.5q-79 -37 -124.5 32.5z" />
<glyph unicode="&#xcf;" horiz-adv-x="1497" d="M0 168q0 94 72 126q174 6 402 6h54q76 0 90 126l8 799q0 198 -24 198h-6q-69 0 -336 -48q-92 0 -118 122t139 144t338.5 52t366.5 30h156q210 0 210 -114.5t-330 -137.5h-72q-66 0 -66 -90q-18 -163 -14 -535v-360l6 -162l498 -36q58 0 68 -133.5t-119.5 -120 t-416.5 13.5l-696 -24h-12q-143 0 -186 90zM371 1888q0 107 111 157q152 -10 152 -111v-17q-11 -104 -75 -104l-71 -8q-113 0 -113 58zM774 1901q0 108 111 158q152 -11 152 -112v-16q-11 -105 -75 -105l-71 -8q-113 0 -113 58z" />
<glyph unicode="&#xd0;" horiz-adv-x="1594" d="M56 765q21 111 180 86q25 3 48 6q-5 215 -14 472l-12 257q99 155 285 129q281 -63 505 -241q239 -278 307 -444q107 -204 116.5 -465t-197 -423.5t-721.5 -95.5q-11 1 -63 -64l-64 -21q-178 25 -139 298q3 156 1 360h-140q-72 0 -92 146zM523 879q125 9 168 -1 q79 -18 79 -124q-24 -112 -97 -112l-29 -5h-107l-12 -1q3 -136 11 -285l6 -1l86 6l170 -78l112 -22l6 -1q292 -11 338 230t-260 693q-215 231 -397 275l-37 -7q-34 -241 -37 -567z" />
<glyph unicode="&#xd1;" horiz-adv-x="1374" d="M43.5 1446.5q1.5 199.5 142.5 199.5q127 0 186 -168q580 -947 702 -1077h6q-43 0 -41 1214q0 120 114 162l30 6q120 -24 120 -78l6 -144l11 -1274q-98 -264 -192 -264q-159 0 -726 813h-6q12 -118 18 -524q-9 -276 -54 -276q-2 -15 -78 -36q-145 0 -168 234 q-18 197 -42 968q-30 45 -28.5 244.5zM44 1949q0 166 130 218t288 75t224.5 -119.5t214 -26.5t221.5 116t74 -118t-130 -176t-234 -90.5t-235.5 101t-248.5 90.5t-250 -136q-44 0 -54 66z" />
<glyph unicode="&#xd2;" horiz-adv-x="1016" d="M40 2145q17 55 124 54q131 -26 314 -181l59 -50q28 -34 7.5 -99t-101.5 -48.5t-144 85.5q-287 147 -259 239zM89 348q-31 460 31.5 747t150.5 421.5t189 161.5t265.5 -102t222.5 -638.5t-176 -770.5q-134 -142 -308 -168l-36 -6q-145 -22 -287 175q-37 82 -52 180z M333 833q2 -382 16 -476q29 -104 135 -88q140 21 204 351.5t7.5 570.5t-153.5 225q-56 -41 -124.5 -191.5t-84.5 -391.5z" />
<glyph unicode="&#xd3;" horiz-adv-x="1016" d="M89 348q-31 460 31.5 747t150.5 421.5t189 161.5t265.5 -102t222.5 -638.5t-176 -770.5q-134 -142 -308 -168l-36 -6q-145 -22 -287 175q-37 82 -52 180zM333 833q2 -382 16 -476q29 -104 135 -88q140 21 204 351.5t7.5 570.5t-153.5 225q-56 -41 -124.5 -191.5 t-84.5 -391.5zM486 1869q-20 65 7 99l60 50q183 155 314 181q107 1 124 -54q28 -92 -260 -239q-62 -69 -143.5 -85.5t-101.5 48.5z" />
<glyph unicode="&#xd4;" horiz-adv-x="1016" d="M89 348q-31 460 31.5 747t150.5 421.5t189 161.5t265.5 -102t222.5 -638.5t-176 -770.5q-134 -142 -308 -168l-36 -6q-145 -22 -287 175q-37 82 -52 180zM163.5 1849.5q-45.5 69.5 47 163.5t132 169.5t135 103t155 -79.5t140.5 -231t45.5 -176t-90 -52t-127.5 122.5 t-100 148.5l-9 2q-25 2 -99.5 -93.5t-104.5 -109.5q-79 -37 -124.5 32.5zM163.5 1849.5q-45.5 69.5 47 163.5t132 169.5t135 103t155 -79.5t140.5 -231t45.5 -176t-90 -52t-127.5 122.5t-100 148.5l-9 2q-25 2 -99.5 -93.5t-104.5 -109.5q-79 -37 -124.5 32.5zM333 833 q2 -382 16 -476q29 -104 135 -88q140 21 204 351.5t7.5 570.5t-153.5 225q-56 -41 -124.5 -191.5t-84.5 -391.5z" />
<glyph unicode="&#xd5;" horiz-adv-x="1016" d="M89 348q-31 460 31.5 747t150.5 421.5t189 161.5t265.5 -102t222.5 -638.5t-176 -770.5q-134 -142 -308 -168l-36 -6q-145 -22 -287 175q-37 82 -52 180zM165 1922.5q-45 96.5 36.5 121.5t212.5 40t224.5 -84.5t195.5 -53t176 46.5t76.5 -64.5t-188.5 -139t-322.5 24 t-248.5 55.5t-162 53.5zM333 833q2 -382 16 -476q29 -104 135 -88q140 21 204 351.5t7.5 570.5t-153.5 225q-56 -41 -124.5 -191.5t-84.5 -391.5z" />
<glyph unicode="&#xd6;" horiz-adv-x="1016" d="M89 348q-31 460 31.5 747t150.5 421.5t189 161.5t265.5 -102t222.5 -638.5t-176 -770.5q-134 -142 -308 -168l-36 -6q-145 -22 -287 175q-37 82 -52 180zM333 833q2 -382 16 -476q29 -104 135 -88q140 21 204 351.5t7.5 570.5t-153.5 225q-56 -41 -124.5 -191.5 t-84.5 -391.5zM371 1888q0 107 111 157q152 -10 152 -111v-17q-11 -104 -75 -104l-71 -8q-113 0 -113 58zM774 1901q0 108 111 158q152 -11 152 -112v-16q-11 -105 -75 -105l-71 -8q-113 0 -113 58z" />
<glyph unicode="&#xd7;" horiz-adv-x="1005" d="M49 1095q0 115 138 126q178 -97 260 -177q67 190 165 280l54 12q98 0 138 -144q-41 -107 -120 -240q-51 -167 -51 -196v-48q27 -21 78 -114q169 -195 172 -287t-171 -121q-74 0 -187 234h-24q-78 -300 -161 -300q-186 0 -186 150q0 56 161 456v18q-42 120 -128 165 q-138 109 -138 186z" />
<glyph unicode="&#xd8;" horiz-adv-x="1016" d="M89 348q-31 460 31.5 747t150.5 421.5t189 161.5q90 24 229 -75l12 39q49 66 96 66h18q108 -62 108 -204q-29 -84 -56 -162q53 -158 81 -404q58 -510 -176 -771q-134 -142 -308 -168l-36 -6q-43 -7 -86 6l-19 -49q-51 -48 -96 -48q-83 0 -126 144q15 51 41 120q0 1 -1 2 q-37 82 -52 180zM333 833q1 -136 3 -236q166 374 269 733l15 49q-35 44 -78 37q-56 -41 -124.5 -191.5t-84.5 -391.5zM448 267q17 -1 36 2q140 21 204 352q33 172 34 320q-130 -348 -219 -535z" />
<glyph unicode="&#xd9;" horiz-adv-x="1334" d="M1 1528q0 120 174 150q90 0 90 -138q15 -1225 69 -1225l6 -6h6q182 76 324 336q35 78 105 877q44 108 138 108q132 -32 132 -114l-81 -811v-84q0 -195 144 -324h48q89 0 186 18q42 -20 42 -60q-31 -124 -138 -198l-126 -24q-237 0 -366 276h-12l-204 -198 q-125 -84 -156 -84q-27 -12 -78 -12q-143 0 -210 156q-66 142 -66 462v384q-15 405 -27 511zM40 2145q17 55 124 54q131 -26 314 -181l59 -50q28 -34 7.5 -99t-101.5 -48.5t-144 85.5q-287 147 -259 239z" />
<glyph unicode="&#xda;" horiz-adv-x="1334" d="M1 1528q0 120 174 150q90 0 90 -138q15 -1225 69 -1225l6 -6h6q182 76 324 336q35 78 105 877q44 108 138 108q132 -32 132 -114l-81 -811v-84q0 -195 144 -324h48q89 0 186 18q42 -20 42 -60q-31 -124 -138 -198l-126 -24q-237 0 -366 276h-12l-204 -198 q-125 -84 -156 -84q-27 -12 -78 -12q-143 0 -210 156q-66 142 -66 462v384q-15 405 -27 511zM642 1879q-20 65 7 99l60 50q183 155 314 181q107 1 124 -54q28 -92 -260 -239q-62 -69 -143.5 -85.5t-101.5 48.5z" />
<glyph unicode="&#xdb;" horiz-adv-x="1334" d="M1 1528q0 120 174 150q90 0 90 -138q15 -1225 69 -1225l6 -6h6q182 76 324 336q35 78 105 877q44 108 138 108q132 -32 132 -114l-81 -811v-84q0 -195 144 -324h48q89 0 186 18q42 -20 42 -60q-31 -124 -138 -198l-126 -24q-237 0 -366 276h-12l-204 -198 q-125 -84 -156 -84q-27 -12 -78 -12q-143 0 -210 156q-66 142 -66 462v384q-15 405 -27 511zM195.5 1930.5q-45.5 69.5 47 163.5t132 169.5t135 103t155 -79.5t140.5 -231t45.5 -176t-90 -52t-127.5 122.5t-100 148.5l-9 2q-25 2 -99.5 -93.5t-104.5 -109.5 q-79 -37 -124.5 32.5zM195.5 1930.5q-45.5 69.5 47 163.5t132 169.5t135 103t155 -79.5t140.5 -231t45.5 -176t-90 -52t-127.5 122.5t-100 148.5l-9 2q-25 2 -99.5 -93.5t-104.5 -109.5q-79 -37 -124.5 32.5z" />
<glyph unicode="&#xdc;" horiz-adv-x="1334" d="M1 1528q0 120 174 150q90 0 90 -138q15 -1225 69 -1225l6 -6h6q182 76 324 336q35 78 105 877q44 108 138 108q132 -32 132 -114l-81 -811v-84q0 -195 144 -324h48q89 0 186 18q42 -20 42 -60q-31 -124 -138 -198l-126 -24q-237 0 -366 276h-12l-204 -198 q-125 -84 -156 -84q-27 -12 -78 -12q-143 0 -210 156q-66 142 -66 462v384q-15 405 -27 511zM156 1904q0 107 111 157q152 -10 152 -111v-17q-11 -104 -75 -104l-71 -8q-113 0 -113 58zM559 1917q0 108 111 158q152 -11 152 -112v-16q-11 -105 -75 -105l-71 -8 q-113 0 -113 58z" />
<glyph unicode="&#xdd;" horiz-adv-x="932" d="M11 1517q30 139 156 162q138 0 138 -306q0 -241 156 -406h6q43 46 85 191.5t38 480.5q0 60 96 102q162 -16 162 -126q0 -218 -176 -790q-58 -282 -58 -470q0 -94 -6 -166.5t-45.5 -111t-110.5 -52.5q-120 34 -120 108l-6 30q30 341 28 428v12q-7 15 -136 165t-171 521 q-36 166 -36 228zM475 1917q-20 65 7 99l60 50q183 155 314 181q107 1 124 -54q28 -92 -260 -239q-62 -69 -143.5 -85.5t-101.5 48.5z" />
<glyph unicode="&#xde;" horiz-adv-x="1283" d="M74 109l33 948q-34 696 -29 783q41 136 147 129q126 -8 106 -314q-2 -30 -1 -120q80 32 218 35q245 6 418 -149t242.5 -387t-76.5 -402.5t-377 -220.5q-225 -48 -410 16q-2 -111 -5 -215q-45 -220 -159 -212h-6q-105 44 -101 109zM334 1302q2 -94 6 -213q6 -218 6 -416 q26 -8 56 -18q102 -37 237 -21l36 4l70 14q259 113 217 311.5t-196.5 295.5t-285.5 59q-81 -24 -146 -16z" />
<glyph unicode="&#xdf;" horiz-adv-x="1423" d="M48 -138l33 948q-34 696 -3 815q23 54 106 97q137 50 375 92q312 55 594 -200q100 -199 -48 -477l-91 -153l5 -11q332 -179 292 -400.5t-205 -312.5t-299 -100q-158 -20 -223 110l-3 5q-5 118 76 159l51 18q159 -33 252 -8q118 116 83.5 205t-319.5 163q-312 21 -359 115 q-42 134 51 180q39 20 88 11q115 -37 252 32q254 200 193 322l-5 11l-27 26q-123 74 -595 -34q-22 -145 -8.5 -633t0.5 -877q-45 -220 -159 -212h-6q-105 44 -101 109z" />
<glyph unicode="&#xe0;" horiz-adv-x="1104" d="M-19 1727q17 55 124 54q131 -26 314 -181l59 -50q28 -34 7.5 -99t-101.5 -48.5t-144 85.5q-287 147 -259 239zM0 444q0 199 90 495q110 260 234 312l126 30q122 0 228 -228q93 -159 168 -258l6 -42v-249q23 -222 96 -222h6q98 0 222 33l60 12q32 0 42 -30 q-42 -102 -127 -175.5t-208.5 -88.5t-246.5 177l-6 24q-26 0 -144 -126q-132 -108 -252 -108q-162 25 -228 107.5t-66 336.5zM228 414q0 -144 78 -144q110 0 264 246l12 72v60q-6 -1 12 75q0 150 -96 312l-24 12h-6q-178 0 -234 -495z" />
<glyph unicode="&#xe1;" horiz-adv-x="1104" d="M0 444q0 199 90 495q110 260 234 312l126 30q122 0 228 -228q93 -159 168 -258l6 -42v-249q23 -222 96 -222h6q98 0 222 33l60 12q32 0 42 -30q-42 -102 -127 -175.5t-208.5 -88.5t-246.5 177l-6 24q-26 0 -144 -126q-132 -108 -252 -108q-162 25 -228 107.5t-66 336.5z M228 414q0 -144 78 -144q110 0 264 246l12 72v60q-6 -1 12 75q0 150 -96 312l-24 12h-6q-178 0 -234 -495zM459 1440q-20 65 7 99l60 50q183 155 314 181q107 1 124 -54q28 -92 -260 -239q-62 -69 -143.5 -85.5t-101.5 48.5z" />
<glyph unicode="&#xe2;" horiz-adv-x="1104" d="M0 444q0 199 90 495q110 260 234 312l126 30q122 0 228 -228q93 -159 168 -258l6 -42v-249q23 -222 96 -222h6q98 0 222 33l60 12q32 0 42 -30q-42 -102 -127 -175.5t-208.5 -88.5t-246.5 177l-6 24q-26 0 -144 -126q-132 -108 -252 -108q-162 25 -228 107.5t-66 336.5z M104.5 1452.5q-45.5 69.5 47 163.5t132 169.5t135 103t155 -79.5t140.5 -231t45.5 -176t-90 -52t-127.5 122.5t-100 148.5l-9 2q-25 2 -99.5 -93.5t-104.5 -109.5q-79 -37 -124.5 32.5zM104.5 1452.5q-45.5 69.5 47 163.5t132 169.5t135 103t155 -79.5t140.5 -231t45.5 -176 t-90 -52t-127.5 122.5t-100 148.5l-9 2q-25 2 -99.5 -93.5t-104.5 -109.5q-79 -37 -124.5 32.5zM228 414q0 -144 78 -144q110 0 264 246l12 72v60q-6 -1 12 75q0 150 -96 312l-24 12h-6q-178 0 -234 -495z" />
<glyph unicode="&#xe3;" horiz-adv-x="1104" d="M0 444q0 199 90 495q110 260 234 312l126 30q122 0 228 -228q93 -159 168 -258l6 -42v-249q23 -222 96 -222h6q98 0 222 33l60 12q32 0 42 -30q-42 -102 -127 -175.5t-208.5 -88.5t-246.5 177l-6 24q-26 0 -144 -126q-132 -108 -252 -108q-162 25 -228 107.5t-66 336.5z M48 1520.5q-45 96.5 36.5 121.5t212.5 40t224.5 -84.5t195.5 -53t176 46.5t76.5 -64.5t-188.5 -139t-322.5 24t-248.5 55.5t-162 53.5zM228 414q0 -144 78 -144q110 0 264 246l12 72v60q-6 -1 12 75q0 150 -96 312l-24 12h-6q-178 0 -234 -495z" />
<glyph unicode="&#xe4;" horiz-adv-x="1104" d="M0 444q0 199 90 495q110 260 234 312l126 30q122 0 228 -228q93 -159 168 -258l6 -42v-249q23 -222 96 -222h6q98 0 222 33l60 12q32 0 42 -30q-42 -102 -127 -175.5t-208.5 -88.5t-246.5 177l-6 24q-26 0 -144 -126q-132 -108 -252 -108q-162 25 -228 107.5t-66 336.5z M5 1464q0 122 190 209h5q105 -42 105 -157v-19q-13 -118 -86 -118l-81 -10q-128 0 -128 67zM228 414q0 -144 78 -144q110 0 264 246l12 72v60q-6 -1 12 75q0 150 -96 312l-24 12h-6q-178 0 -234 -495zM442 1472q0 122 191 209h4q105 -42 105 -157v-19q-13 -119 -86 -119 l-80 -9q-129 0 -129 66z" />
<glyph unicode="&#xe5;" horiz-adv-x="1104" d="M0 444q0 199 90 495q110 260 234 312l126 30q122 0 228 -228q93 -159 168 -258l6 -42v-249q23 -222 96 -222h6q98 0 222 33l60 12q32 0 42 -30q-42 -102 -127 -175.5t-208.5 -88.5t-246.5 177l-6 24q-26 0 -144 -126q-132 -108 -252 -108q-162 25 -228 107.5t-66 336.5z M132.5 1457q-41.5 90 138.5 213t313 70t125.5 -105.5t-33.5 -129.5q-46 -95 -149 -153l-32 -17q-107 -60 -247 -28q-74 60 -115.5 150zM228 414q0 -144 78 -144q110 0 264 246l12 72v60q-6 -1 12 75q0 150 -96 312l-24 12h-6q-178 0 -234 -495zM323 1519l10 -17 q22 -39 103 -21l30 12l18 10q50 33 41 51l-14 24q-26 46 -151 -10l-28 -16q-21 -12 -9 -33z" />
<glyph unicode="&#xe6;" horiz-adv-x="1930" d="M0 444q0 199 90 495q110 260 234 312l126 30q122 0 228 -228q53 -90 99 -161q41 69 97 136q221 265 372.5 265t285.5 -162l18 -72q29 -221 -532 -647q-119 -36 -120 -60v-6q27 -45 72 -64q92 3 229.5 8.5t190.5 25.5q406 166 449.5 90t-4.5 -168q-304 -165 -601 -208 q-187 -27 -305 2q-117 -3 -233 178l-6 24q-26 0 -144 -126q-132 -108 -252 -108q-162 25 -228 107.5t-66 336.5zM228 414q0 -144 78 -144q110 0 264 246l12 72v60q-6 -1 12 75q0 150 -96 312l-24 12h-6q-178 0 -234 -495zM898 646h12q61 0 358 293q42 59 42 90v6l-18 18h-24 q-110 0 -370 -383v-24z" />
<glyph unicode="&#xe7;" horiz-adv-x="951" d="M18 666.5q45 233.5 251 508.5q88 66 186 66h18q104 0 186 -168q56 -58 111 -282v-24q-23 -132 -128.5 -120.5t-129.5 174.5v84q-20 47 -75 78h-12q-116 -98 -186.5 -380.5t199.5 -365.5l72 -6h36q136 0 233.5 47.5t163 59.5t88 -85.5t-158 -188.5t-421.5 -97t-359.5 230 t-73.5 469.5zM152.5 -456q14.5 115 136.5 97q144 -26 165 45.5t-115 157.5q-45 83 12 278l207 6q6 -100 40 -243q98 -79 87 -195t-86.5 -193.5t-365.5 -71.5q-95 4 -80.5 119z" />
<glyph unicode="&#xe8;" horiz-adv-x="1113" d="M-3 1763q17 55 124 54q131 -26 314 -181l59 -50q28 -34 7.5 -99t-101.5 -48.5t-144 85.5q-287 147 -259 239zM9.5 457q-19.5 289 202 554.5t373 265.5t285.5 -162l18 -72q29 -221 -532 -647q-119 -36 -120 -60v-6q47 -78 150 -78h18q196 0 324 48q406 166 449.5 90 t-4.5 -168q-304 -165 -601 -208t-420 55.5t-142.5 387.5zM236 630h12q61 0 358 293q42 59 42 90v6l-18 18h-24q-110 0 -370 -383v-24z" />
<glyph unicode="&#xe9;" horiz-adv-x="1113" d="M9.5 457q-19.5 289 202 554.5t373 265.5t285.5 -162l18 -72q29 -221 -532 -647q-119 -36 -120 -60v-6q47 -78 150 -78h18q196 0 324 48q406 166 449.5 90t-4.5 -168q-304 -165 -601 -208t-420 55.5t-142.5 387.5zM236 630h12q61 0 358 293q42 59 42 90v6l-18 18h-24 q-110 0 -370 -383v-24zM503 1413q-20 65 7 99l60 50q183 155 314 181q107 1 124 -54q28 -92 -260 -239q-62 -69 -143.5 -85.5t-101.5 48.5z" />
<glyph unicode="&#xea;" horiz-adv-x="1113" d="M9.5 457q-19.5 289 202 554.5t373 265.5t285.5 -162l18 -72q29 -221 -532 -647q-119 -36 -120 -60v-6q47 -78 150 -78h18q196 0 324 48q406 166 449.5 90t-4.5 -168q-304 -165 -601 -208t-420 55.5t-142.5 387.5zM200.5 1479.5q-45.5 69.5 47 163.5t132 169.5t135 103 t155 -79.5t140.5 -231t45.5 -176t-90 -52t-127.5 122.5t-100 148.5l-9 2q-25 2 -99.5 -93.5t-104.5 -109.5q-79 -37 -124.5 32.5zM200.5 1479.5q-45.5 69.5 47 163.5t132 169.5t135 103t155 -79.5t140.5 -231t45.5 -176t-90 -52t-127.5 122.5t-100 148.5l-9 2 q-25 2 -99.5 -93.5t-104.5 -109.5q-79 -37 -124.5 32.5zM236 630h12q61 0 358 293q42 59 42 90v6l-18 18h-24q-110 0 -370 -383v-24z" />
<glyph unicode="&#xeb;" horiz-adv-x="1113" d="M9.5 457q-19.5 289 202 554.5t373 265.5t285.5 -162l18 -72q29 -221 -532 -647q-119 -36 -120 -60v-6q47 -78 150 -78h18q196 0 324 48q406 166 449.5 90t-4.5 -168q-304 -165 -601 -208t-420 55.5t-142.5 387.5zM193 1491q0 107 111 157q152 -10 152 -111v-17 q-11 -104 -75 -104l-71 -8q-113 0 -113 58zM236 630h12q61 0 358 293q42 59 42 90v6l-18 18h-24q-110 0 -370 -383v-24zM596 1504q0 108 111 158q152 -11 152 -112v-16q-11 -105 -75 -105l-71 -8q-113 0 -113 58z" />
<glyph unicode="&#xec;" horiz-adv-x="514" d="M-223 1688q17 55 124 54q131 -26 314 -181l59 -50q28 -34 7.5 -99t-101.5 -48.5t-144 85.5q-287 147 -259 239zM110 1070q44 144 174 162q96 0 87 -604q0 -136 24 -420q0 -99 -96 -144q-138 30 -138 114q-22 160 -51 892z" />
<glyph unicode="&#xed;" horiz-adv-x="514" d="M110 1070q44 144 174 162q96 0 87 -604q0 -136 24 -420q0 -99 -96 -144q-138 30 -138 114q-22 160 -51 892zM132 1450q-20 65 7 99l60 50q183 155 314 181q107 1 124 -54q28 -92 -260 -239q-62 -69 -143.5 -85.5t-101.5 48.5z" />
<glyph unicode="&#xee;" horiz-adv-x="514" d="M-84 1452.5q-45 69.5 47 163.5t132 169.5t135.5 103t155 -79.5t140.5 -231t45.5 -176t-90 -52t-127.5 122.5t-101 148.5l-9 2q-24 2 -98.5 -93.5t-104.5 -109.5q-80 -37 -125 32.5zM-84 1452.5q-45 69.5 47 163.5t132 169.5t135.5 103t155 -79.5t140.5 -231t45.5 -176 t-90 -52t-127.5 122.5t-101 148.5l-9 2q-24 2 -98.5 -93.5t-104.5 -109.5q-80 -37 -125 32.5zM110 1070q44 144 174 162q96 0 87 -604q0 -136 24 -420q0 -99 -96 -144q-138 30 -138 114q-22 160 -51 892z" />
<glyph unicode="&#xef;" horiz-adv-x="514" d="M-139 1469q0 107 111 157q152 -10 152 -111v-17q-11 -104 -75 -104l-71 -8q-113 0 -113 58zM110 1070q44 144 174 162q96 0 87 -604q0 -136 24 -420q0 -99 -96 -144q-138 30 -138 114q-22 160 -51 892zM264 1482q0 108 111 158q152 -11 152 -112v-16q-11 -105 -75 -105 l-71 -8q-113 0 -113 58z" />
<glyph unicode="&#xf0;" horiz-adv-x="810" d="M0 594q0 606 66 606q45 72 144 72h36q46 5 88 -3q0 22 5 42h-75q-68 0 -88 114q20 87 92 87l96 -3q-7 27 -23 41q-55 47 -293 29q-31 32 9 85q118 117 328 104q93 -51 160 -195q16 -35 26 -69h15q-8 19 67.5 5t75.5 -97q-23 -87 -92 -87l-27 -3h-26q-2 -8 -3 -16 q-31 -122 63 -341.5t94 -491.5q0 -322 -276 -455q-243 -54 -352.5 102t-109.5 474zM246 744q-27 -275 14.5 -358t105.5 -86q122 0 128 291.5t-122 410.5l-50 -16q-15 16 -76 -242z" />
<glyph unicode="&#xf1;" horiz-adv-x="1024" d="M-44 1546.5q-45 96.5 36.5 121.5t212.5 40t224.5 -84.5t195.5 -53t176 46.5t76.5 -64.5t-188.5 -139t-322.5 24t-248.5 55.5t-162 53.5zM16 1078q84 114 144 114q64 0 108 -90h12q189 186 270 186h18q205 19 285.5 -287t106.5 -791q-37 -210 -120 -210h-6q-80 0 -115 30 t-46 243t-16.5 341t-46.5 284q-51 112 -78 114q-26 0 -114 -150l-60 -180q-64 -303 -64 -364l6 -144q-9 -156 -138 -155t-132 149q4 723 -14 910z" />
<glyph unicode="&#xf2;" horiz-adv-x="810" d="M-142 1732q17 55 124 54q131 -26 314 -181l59 -50q28 -34 7.5 -99t-101.5 -48.5t-144 85.5q-287 147 -259 239zM0 594q0 606 66 606q45 72 144 72h36q207 22 349.5 -228t142.5 -571.5t-276 -454.5q-243 -54 -352.5 102t-109.5 474zM246 744q-27 -275 14.5 -358t105.5 -86 q122 0 133 254t-127 448h-12q-53 0 -114 -258z" />
<glyph unicode="&#xf3;" horiz-adv-x="810" d="M0 594q0 606 66 606q45 72 144 72h36q207 22 349.5 -228t142.5 -571.5t-276 -454.5q-243 -54 -352.5 102t-109.5 474zM159 1472q-20 65 7 99l60 50q183 155 314 181q107 1 124 -54q28 -92 -260 -239q-62 -69 -143.5 -85.5t-101.5 48.5zM246 744q-27 -275 14.5 -358 t105.5 -86q122 0 133 254t-127 448h-12q-53 0 -114 -258z" />
<glyph unicode="&#xf4;" horiz-adv-x="810" d="M-63 1490.5q-45 69.5 47 163.5t132 169.5t135.5 103t155 -79.5t140.5 -231t45.5 -176t-90 -52t-127.5 122.5t-101 148.5l-9 2q-24 2 -98.5 -93.5t-104.5 -109.5q-80 -37 -125 32.5zM-63 1490.5q-45 69.5 47 163.5t132 169.5t135.5 103t155 -79.5t140.5 -231t45.5 -176 t-90 -52t-127.5 122.5t-101 148.5l-9 2q-24 2 -98.5 -93.5t-104.5 -109.5q-80 -37 -125 32.5zM0 594q0 606 66 606q45 72 144 72h36q207 22 349.5 -228t142.5 -571.5t-276 -454.5q-243 -54 -352.5 102t-109.5 474zM246 744q-27 -275 14.5 -358t105.5 -86q122 0 133 254 t-127 448h-12q-53 0 -114 -258z" />
<glyph unicode="&#xf5;" horiz-adv-x="810" d="M-33 1563.5q-45 96.5 36.5 121.5t212.5 40t224.5 -84.5t195.5 -53t176 46.5t76.5 -64.5t-188.5 -139t-322.5 24t-248.5 55.5t-162 53.5zM0 594q0 606 66 606q45 72 144 72h36q207 22 349.5 -228t142.5 -571.5t-276 -454.5q-243 -54 -352.5 102t-109.5 474zM246 744 q-27 -275 14.5 -358t105.5 -86q122 0 133 254t-127 448h-12q-53 0 -114 -258z" />
<glyph unicode="&#xf6;" horiz-adv-x="810" d="M-26 1501q0 107 111 157q152 -10 152 -111v-17q-11 -104 -75 -104l-71 -8q-113 0 -113 58zM0 594q0 606 66 606q45 72 144 72h36q207 22 349.5 -228t142.5 -571.5t-276 -454.5q-243 -54 -352.5 102t-109.5 474zM246 744q-27 -275 14.5 -358t105.5 -86q122 0 133 254 t-127 448h-12q-53 0 -114 -258zM377 1514q0 108 111 158q152 -11 152 -112v-16q-11 -105 -75 -105l-71 -8q-113 0 -113 58z" />
<glyph unicode="&#xf7;" d="M81 735q26 138 120 138l288 -12h126q463 56 561.5 33.5t98.5 -153.5q-30 -138 -120 -138l-36 -6h-132l-618 -42h-174q-89 0 -114 180zM386 206q-5 240 186.5 225.5t191.5 -159.5v-24q-16 -150 -108 -150l-102 -12q-162 0 -162 84zM424 1097q-5 240 186.5 225.5 t191.5 -159.5v-24q-16 -150 -108 -150l-102 -12q-162 0 -162 84z" />
<glyph unicode="&#xf8;" horiz-adv-x="855" d="M-24 -6q25 86 83 221q-59 146 -59 379q0 606 66 606q45 72 144 72h36q117 12 214 -62l20 68l75 221q49 66 96 66h18q108 -62 108 -204q-76 -213 -144 -390q105 -223 105 -498q0 -322 -276 -455q-126 -28 -216 1l-48 -121q-51 -48 -96 -48q-83 0 -126 144zM236 602 q83 192 149 380q-6 10 -13 20h-12q-53 0 -114 -258q-8 -79 -10 -142zM357 301q4 -1 9 -1q122 0 133 254q2 39 0 76q-67 -162 -121 -276z" />
<glyph unicode="&#xf9;" horiz-adv-x="937" d="M-164 1775q17 55 124 54q131 -26 314 -181l59 -50q28 -34 7.5 -99t-101.5 -48.5t-144 85.5q-287 147 -259 239zM33 1084q16 144 108 144h6q132 0 132 -240q-17 -512 55 -636q41 24 179 516q30 94 54 282q53 78 90 78q126 -17 126 -108v-84l-12 -96v-72q-17 -534 43 -576 q32 -72 150 -72q36 0 36 -42q-24 -156 -138 -156q-140 0 -288 228h-12q-132 -204 -258 -204q-60 0 -186 186q-90 254 -73 756z" />
<glyph unicode="&#xfa;" horiz-adv-x="937" d="M33 1084q16 144 108 144h6q132 0 132 -240q-17 -512 55 -636q41 24 179 516q30 94 54 282q53 78 90 78q126 -17 126 -108v-84l-12 -96v-72q-17 -534 43 -576q32 -72 150 -72q36 0 36 -42q-24 -156 -138 -156q-140 0 -288 228h-12q-132 -204 -258 -204q-60 0 -186 186 q-90 254 -73 756zM443 1461q-20 65 7 99l60 50q183 155 314 181q107 1 124 -54q28 -92 -260 -239q-62 -69 -143.5 -85.5t-101.5 48.5z" />
<glyph unicode="&#xfb;" horiz-adv-x="937" d="M33 1084q16 144 108 144h6q132 0 132 -240q-17 -512 55 -636q41 24 179 516q30 94 54 282q53 78 90 78q126 -17 126 -108v-84l-12 -96v-72q-17 -534 43 -576q32 -72 150 -72q36 0 36 -42q-24 -156 -138 -156q-140 0 -288 228h-12q-132 -204 -258 -204q-60 0 -186 186 q-90 254 -73 756zM83.5 1463.5q-45.5 69.5 47 163.5t132 169.5t135 103t155 -79.5t140.5 -231t45.5 -176t-90 -52t-127.5 122.5t-100 148.5l-9 2q-25 2 -99.5 -93.5t-104.5 -109.5q-79 -37 -124.5 32.5zM83.5 1463.5q-45.5 69.5 47 163.5t132 169.5t135 103t155 -79.5 t140.5 -231t45.5 -176t-90 -52t-127.5 122.5t-100 148.5l-9 2q-25 2 -99.5 -93.5t-104.5 -109.5q-79 -37 -124.5 32.5z" />
<glyph unicode="&#xfc;" horiz-adv-x="937" d="M33 1084q16 144 108 144h6q132 0 132 -240q-17 -512 55 -636q41 24 179 516q30 94 54 282q53 78 90 78q126 -17 126 -108v-84l-12 -96v-72q-17 -534 43 -576q32 -72 150 -72q36 0 36 -42q-24 -156 -138 -156q-140 0 -288 228h-12q-132 -204 -258 -204q-60 0 -186 186 q-90 254 -73 756zM65 1442q0 107 111 157q152 -10 152 -111v-17q-11 -104 -75 -104l-71 -8q-113 0 -113 58zM468 1455q0 108 111 158q152 -11 152 -112v-16q-11 -105 -75 -105l-71 -8q-113 0 -113 58z" />
<glyph unicode="&#xfd;" horiz-adv-x="923" d="M-31 -778q-32 263 58 425q49 54 125 64l15 -23l28 -136q-24 -99 -20 -135l4 -84q26 -203 210 -180l24 3q217 27 231 627q-6 246 -27 350.5t-57 100.5q-111 -185 -216 -212t-186 89t-107 326l-8 65q31 658 66 662q25 88 91 96q78 10 121 -105l4 -30q-46 -521 -22 -718 l6 -47l9 -29l18 2q64 44 124 269q33 111 71 524q38 108 75 124q142 -28 154 -120l3 -24l-18 -414l16 -125q100 -376 122 -712q-20 -428 -75 -572q-64 -204 -222 -305q-56 -43 -115 -51l-53 -6q-282 -35 -412 203zM492 1499q-20 65 7 99l60 50q183 155 314 181q107 1 124 -54 q28 -92 -260 -239q-62 -69 -143.5 -85.5t-101.5 48.5z" />
<glyph unicode="&#xfe;" horiz-adv-x="1315" d="M74 -294l33 948q-34 696 -29 783q41 136 147 129q126 -8 106 -314q-2 -30 -1 -120q80 32 218 35q245 6 418 -149t242.5 -387t-76.5 -402.5t-377 -220.5q-225 -48 -410 16q-2 -111 -5 -215q-45 -220 -159 -212h-6q-105 44 -101 109zM334 899q2 -94 6 -213q6 -218 6 -416 q26 -8 56 -18q102 -37 237 -21l36 4l70 14q259 113 217 311.5t-196.5 295.5t-285.5 59q-81 -24 -146 -16z" />
<glyph unicode="&#xff;" horiz-adv-x="923" d="M-31 -778q-32 263 58 425q49 54 125 64l15 -23l28 -136q-24 -99 -20 -135l4 -84q26 -203 210 -180l24 3q217 27 231 627q-6 246 -27 350.5t-57 100.5q-111 -185 -216 -212t-186 89t-107 326l-8 65q31 658 66 662q25 88 91 96q78 10 121 -105l4 -30q-46 -521 -22 -718 l6 -47l9 -29l18 2q64 44 124 269q33 111 71 524q38 108 75 124q142 -28 154 -120l3 -24l-18 -414l16 -125q100 -376 122 -712q-20 -428 -75 -572q-64 -204 -222 -305q-56 -43 -115 -51l-53 -6q-282 -35 -412 203zM84 1537q0 122 190 209h5q105 -42 105 -157v-19 q-13 -118 -86 -118l-81 -10q-128 0 -128 67zM521 1545q0 122 191 209h4q105 -42 105 -157v-19q-13 -119 -86 -119l-80 -9q-129 0 -129 66z" />
<glyph unicode="&#x152;" horiz-adv-x="1976" d="M89 348q-31 460 31.5 747t150.5 421.5t189 161.5q99 26 259 -97q18 113 208 137l234 18q504 -37 519 -180.5t-129 -143.5q-341 72 -534 72h-12l-30 -24v-482l6 -6h36q648 0 648 -48l24 -36q-54 -112 -114 -132q0 -26 -576 -60q-36 -19 -36 -30l-6 -144q4 -226 36 -240 q91 0 456 108q149 30 242.5 37t123.5 -139q-30 -132 -126 -132q-317 0 -478.5 -78t-277.5 -78q-66 0 -168 132q-5 7 -10 18q-128 -127 -291 -151l-36 -6q-145 -22 -287 175q-37 82 -52 180zM333 833q2 -382 16 -476q29 -104 135 -88q140 21 204 352q10 53 18 104l16 239 q-2 122 -26 227q-57 240 -154 225q-56 -41 -124.5 -191.5t-84.5 -391.5z" />
<glyph unicode="&#x153;" horiz-adv-x="1842" d="M0 594q0 606 66 606q45 72 144 72h36q207 22 350 -228q37 -66 65 -138q41 70 98 138q221 265 372.5 265t285.5 -162l18 -72q29 -221 -532 -647q-119 -36 -120 -60v-6q47 -78 150 -78h18q196 0 324 48q406 166 449.5 90t-4.5 -168q-304 -165 -601 -208t-420 56 q-30 24 -55 60q-67 -88 -182 -144q-243 -54 -352.5 102t-109.5 474zM246 744q-27 -275 14.5 -358t105.5 -86q122 0 133 254t-127 448h-12q-53 0 -114 -258zM783 662h12q61 0 358 293q42 59 42 90v6l-18 18h-24q-110 0 -370 -383v-24z" />
<glyph unicode="&#x178;" horiz-adv-x="932" d="M11 1517q30 139 156 162q138 0 138 -306q0 -241 156 -406h6q43 46 85 191.5t38 480.5q0 60 96 102q162 -16 162 -126q0 -218 -176 -790q-58 -282 -58 -470q0 -94 -6 -166.5t-45.5 -111t-110.5 -52.5q-120 34 -120 108l-6 30q30 341 28 428v12q-7 15 -136 165t-171 521 q-36 166 -36 228zM70 1920q0 107 111 157q152 -10 152 -111v-17q-11 -104 -75 -104l-71 -8q-113 0 -113 58zM473 1933q0 108 111 158q152 -11 152 -112v-16q-11 -105 -75 -105l-71 -8q-113 0 -113 58z" />
<glyph unicode="&#x2c6;" horiz-adv-x="1133" d="M113.5 1275.5q-59.5 91.5 62 215.5t174 223.5t178 135.5t204 -105t184.5 -304t59.5 -231.5t-118.5 -68t-168 161t-132 195.5l-11 3q-33 2 -131 -123.5t-138 -145.5q-104 -48 -163.5 43.5zM113.5 1275.5q-59.5 91.5 62 215.5t174 223.5t178 135.5t204 -105t184.5 -304 t59.5 -231.5t-118.5 -68t-168 161t-132 195.5l-11 3q-33 2 -131 -123.5t-138 -145.5q-104 -48 -163.5 43.5z" />
<glyph unicode="&#x2dc;" horiz-adv-x="1321" d="M28 1536q0 166 130 218t288 75t224.5 -119.5t214 -26.5t221.5 116t74 -118t-130 -176t-234 -90.5t-235.5 101t-248.5 90.5t-250 -136q-44 0 -54 66z" />
<glyph unicode="&#x2000;" horiz-adv-x="1186" />
<glyph unicode="&#x2001;" horiz-adv-x="2372" />
<glyph unicode="&#x2002;" horiz-adv-x="1186" />
<glyph unicode="&#x2003;" horiz-adv-x="2372" />
<glyph unicode="&#x2004;" horiz-adv-x="790" />
<glyph unicode="&#x2005;" horiz-adv-x="593" />
<glyph unicode="&#x2006;" horiz-adv-x="395" />
<glyph unicode="&#x2007;" horiz-adv-x="395" />
<glyph unicode="&#x2008;" horiz-adv-x="296" />
<glyph unicode="&#x2009;" horiz-adv-x="474" />
<glyph unicode="&#x200a;" horiz-adv-x="131" />
<glyph unicode="&#x2010;" d="M146 848q26 138 120 138l288 -12h126q463 56 561.5 33.5t98.5 -153.5q-30 -138 -120 -138l-36 -6h-132l-618 -42h-174q-89 0 -114 180z" />
<glyph unicode="&#x2011;" d="M146 848q26 138 120 138l288 -12h126q463 56 561.5 33.5t98.5 -153.5q-30 -138 -120 -138l-36 -6h-132l-618 -42h-174q-89 0 -114 180z" />
<glyph unicode="&#x2012;" d="M146 848q26 138 120 138l288 -12h126q463 56 561.5 33.5t98.5 -153.5q-30 -138 -120 -138l-36 -6h-132l-618 -42h-174q-89 0 -114 180z" />
<glyph unicode="&#x2013;" d="M146 848q26 138 120 138l288 -12h126q463 56 561.5 33.5t98.5 -153.5q-30 -138 -120 -138l-36 -6h-132l-618 -42h-174q-89 0 -114 180z" />
<glyph unicode="&#x2014;" horiz-adv-x="1863" d="M146 848q26 138 120 138l288 -12h126q887 46 985.5 23.5t98.5 -153.5q-30 -138 -120 -138l-36 -6h-132l-1042 -32h-174q-89 0 -114 180z" />
<glyph unicode="&#x2018;" horiz-adv-x="479" d="M190 1592q-36 262 64 310q60 29 144 -64q15 -33 29 -312l63 -256q-7 -50 -41 -66q-109 -52 -176 89l-5 10q-87 181 -78 289z" />
<glyph unicode="&#x2019;" horiz-adv-x="580" d="M180 1270l63 256q14 279 29 312q84 93 144 64q100 -48 64 -310q9 -108 -78 -289l-5 -10q-67 -141 -176 -89q-34 16 -41 66z" />
<glyph unicode="&#x201a;" horiz-adv-x="479" d="M94 -394l63 256q14 279 29 312q84 93 144 64q100 -48 64 -310q9 -108 -78 -289l-5 -10q-67 -141 -176 -89q-34 16 -41 66z" />
<glyph unicode="&#x201c;" horiz-adv-x="834" d="M107 1627q26 168 150 168q33 0 66 -24q132 -210 132 -480v-12q-30 -120 -90 -156h-24q-75 13 -234 504zM449 1609q0 99 168 138l60 -24q58 0 126 -444l-6 -24q-26 -162 -120 -162h-6q-76 0 -144 234q-78 227 -78 282z" />
<glyph unicode="&#x201d;" horiz-adv-x="834" d="M107 1279q68 444 126 444l60 24q168 -39 168 -138q0 -55 -78 -282q-67 -234 -144 -234h-6q-94 0 -120 162zM455 1279v12q0 270 132 480q33 24 66 24q124 0 150 -168q-159 -491 -234 -504h-24q-60 36 -90 156z" />
<glyph unicode="&#x201e;" horiz-adv-x="897" d="M128 -310q68 444 126 444l60 24q168 -39 168 -138q0 -55 -78 -282q-67 -234 -144 -234h-6q-94 0 -120 162zM476 -298q0 270 132 480q33 24 66 24q124 0 150 -168q-159 -491 -234 -504h-24q-60 36 -90 156v12z" />
<glyph unicode="&#x2022;" horiz-adv-x="659" d="M129 1051q0 188 294 323h7q162 -65 162 -242v-30q-19 -183 -133 -183l-124 -15q-199 0 -199 103z" />
<glyph unicode="&#x2026;" horiz-adv-x="1701" d="M129 120q0 154 240 264h6q132 -53 132 -198v-24q-16 -150 -108 -150l-102 -12q-162 0 -162 84zM683 129q0 154 240 264h6q132 -53 132 -198v-24q-16 -150 -108 -150l-102 -12q-162 0 -162 84zM1238 120q0 154 240 264h6q132 -53 132 -198v-24q-16 -150 -108 -150 l-102 -12q-162 0 -162 84z" />
<glyph unicode="&#x202f;" horiz-adv-x="474" />
<glyph unicode="&#x2039;" horiz-adv-x="1154" d="M55 569q0 130 107.5 196t299.5 297t283.5 239.5t119 -36t6 -129t-107.5 -153.5q-305 -329 -330 -372v-12q5 -32 270 -126q231 -101 281 -163t9.5 -125.5t-95.5 -55.5t-399 128q-336 128 -354 144q-90 95 -90 168z" />
<glyph unicode="&#x203a;" horiz-adv-x="1122" d="M73.5 184.5q-40.5 63.5 9.5 125.5t281 163q265 94 270 126v12q-25 43 -330 372q-86 69 -107.5 153.5t6 129t119 36t283.5 -239.5t299.5 -297t107.5 -196q0 -73 -90 -168q-18 -16 -354 -144q-344 -120 -399 -128t-95.5 55.5z" />
<glyph unicode="&#x205f;" horiz-adv-x="593" />
<glyph unicode="&#x20ac;" horiz-adv-x="1347" d="M33 660q26 138 120 138l288 -12h126q253 51 351.5 28.5t98.5 -153.5q-30 -138 -120 -138l-36 -6h-132l-408 -37h-174q-89 0 -114 180zM33 1084q26 138 120 138l288 -12h126q253 51 346 12.5t104 -137.5q-30 -138 -120 -138l-36 -6h-132l-408 -37h-174q-89 0 -114 180z M264 558q0 273 174 714q87 208 240 360q112 92 192 96q184 0 190.5 -135t-77.5 -126t-119 9h-18q-198 -148 -312 -600q-36 -129 -36 -288q0 -223 84 -264q95 -84 342 -84q11 -5 151.5 49t164.5 -102q0 -141 -204 -178.5t-394 3.5q-240 88 -330 264q-48 142 -48 282z" />
<glyph unicode="&#x2122;" horiz-adv-x="1497" />
<glyph unicode="&#x25fc;" horiz-adv-x="1360" d="M0 0v1360h1360v-1360h-1360z" />
</font>
</defs>
</svg>
